<svg width="21" height="21" viewBox="0 0 21 21" fill="none" xmlns="http://www.w3.org/2000/svg">
<mask id="mask0_85_1192" style="mask-type:luminance" maskUnits="userSpaceOnUse" x="0" y="0" width="21" height="21">
<path d="M0 7.62939e-06H21V21H0V7.62939e-06Z" fill="white"/>
</mask>
<g mask="url(#mask0_85_1192)">
<path d="M4.56751 0.615242C4.21818 0.615242 3.88218 0.753956 3.63506 1.0014C3.3879 1.24852 3.24951 1.58362 3.24951 1.9332V19.4839C3.24951 19.9815 3.65151 20.3848 4.14903 20.3848H4.15235C4.41924 20.3848 4.67292 20.2787 4.86073 20.0902C5.73387 19.2177 8.31051 16.6411 9.37478 15.5788C9.67133 15.2806 10.0766 15.1129 10.4984 15.1129C10.9201 15.1129 11.3254 15.2806 11.6219 15.5788C12.6895 16.6444 15.2793 19.2335 16.1426 20.0981C16.3271 20.2817 16.5741 20.3848 16.8345 20.3848C17.3386 20.3848 17.7472 19.9765 17.7472 19.4727V1.9332C17.7472 1.58362 17.6088 1.24852 17.3617 1.0014C17.1145 0.753956 16.7785 0.615242 16.4292 0.615242H4.56751Z" fill="#BE2475"/>
<path d="M4.56751 0.615242C4.21818 0.615242 3.88218 0.753956 3.63506 1.0014C3.3879 1.24852 3.24951 1.58362 3.24951 1.9332V19.4839C3.24951 19.9815 3.65151 20.3848 4.14903 20.3848H4.15235C4.41924 20.3848 4.67292 20.2787 4.86073 20.0902C5.73387 19.2177 8.31051 16.6411 9.37478 15.5788C9.67133 15.2806 10.0766 15.1129 10.4984 15.1129C10.9201 15.1129 11.3254 15.2806 11.6219 15.5788C12.6895 16.6444 15.2793 19.2335 16.1426 20.0981C16.3271 20.2817 16.5741 20.3848 16.8345 20.3848C17.3386 20.3848 17.7472 19.9765 17.7472 19.4727V1.9332C17.7472 1.58362 17.6088 1.24852 17.3617 1.0014C17.1145 0.753956 16.7785 0.615242 16.4292 0.615242H4.56751Z" fill="url(#paint0_linear_85_1192)"/>
</g>
<defs>
<linearGradient id="paint0_linear_85_1192" x1="11.6703" y1="-4.70732" x2="24.3653" y2="8.64456" gradientUnits="userSpaceOnUse">
<stop stop-color="#532C85"/>
<stop offset="1" stop-color="#BE2475"/>
</linearGradient>
</defs>
</svg>
