<svg width="16" height="10" viewBox="0 0 16 10" fill="none" xmlns="http://www.w3.org/2000/svg">
<path fill-rule="evenodd" clip-rule="evenodd" d="M14.6563 0.0172732C14.0827 0.0172732 13.9894 0.262227 13.586 0.665702C13.0402 1.21149 8.15009 6.05854 8.03127 6.23601L7.0547 5.27507C6.27593 4.49631 2.25415 0.424399 1.91135 0.168404C1.5754 -0.0824205 1.13299 -0.0372037 0.83835 0.199337C0.733663 0.283374 0.198306 0.813883 0.117512 0.947255C0.0523738 1.05475 0.0152187 1.15976 -5.51545e-08 1.26179L-6.47879e-08 1.48217C0.0706882 1.96627 0.583757 2.36665 0.835926 2.61885L7.31969 9.10384C8.10645 9.88365 8.71682 9.0661 9.16405 8.61884L15.6484 2.13446C15.9432 1.84075 16 1.72891 16 1.32976C16 0.985842 15.6774 0.710247 15.4922 0.525057C15.2783 0.311124 15.0608 0.017244 14.6563 0.017244L14.6563 0.0172732Z" fill="#911D56"/>
<path fill-rule="evenodd" clip-rule="evenodd" d="M14.6563 0.0172732C14.0827 0.0172732 13.9894 0.262227 13.586 0.665702C13.0402 1.21149 8.15009 6.05854 8.03127 6.23601L7.0547 5.27507C6.27593 4.49631 2.25415 0.424399 1.91135 0.168404C1.5754 -0.0824205 1.13299 -0.0372037 0.83835 0.199337C0.733663 0.283374 0.198306 0.813883 0.117512 0.947255C0.0523738 1.05475 0.0152187 1.15976 -5.51545e-08 1.26179L-6.47879e-08 1.48217C0.0706882 1.96627 0.583757 2.36665 0.835926 2.61885L7.31969 9.10384C8.10645 9.88365 8.71682 9.0661 9.16405 8.61884L15.6484 2.13446C15.9432 1.84075 16 1.72891 16 1.32976C16 0.985842 15.6774 0.710247 15.4922 0.525057C15.2783 0.311124 15.0608 0.017244 14.6563 0.017244L14.6563 0.0172732Z" fill="url(#paint0_linear_11_30)"/>
<defs>
<linearGradient id="paint0_linear_11_30" x1="-4.30769" y1="5.47586" x2="4.26404" y2="15.6192" gradientUnits="userSpaceOnUse">
<stop stop-color="#4B267A"/>
<stop offset="1" stop-color="#BE2475"/>
</linearGradient>
</defs>
</svg>
