<svg width="18" height="18" viewBox="0 0 18 18" fill="none" xmlns="http://www.w3.org/2000/svg">
<path d="M15.63 6.75001L14.8125 7.25251V6.31501L15.63 6.75001ZM3.1875 6.31501L2.37 6.75001L3.1875 7.25251V6.31501ZM15.1875 8.37001L10.0575 11.52C9.73807 11.7117 9.37254 11.813 9 11.813C8.62746 11.813 8.26193 11.7117 7.9425 11.52L2.8125 8.37001L1.6875 7.68001V14.625C1.6875 15.0726 1.86529 15.5018 2.18176 15.8182C2.49822 16.1347 2.92745 16.3125 3.375 16.3125H14.625C15.0726 16.3125 15.5018 16.1347 15.8182 15.8182C16.1347 15.5018 16.3125 15.0726 16.3125 14.625V7.68001L15.1875 8.37001ZM8.5275 10.56L4.3125 7.97251V3.00001C4.3115 2.82737 4.34477 2.65625 4.41038 2.49656C4.47599 2.33687 4.57263 2.19179 4.6947 2.06971C4.81678 1.94763 4.96186 1.85099 5.12155 1.78539C5.28124 1.71978 5.45236 1.68651 5.625 1.68751H12.375C12.5476 1.68651 12.7188 1.71978 12.8784 1.78539C13.0381 1.85099 13.1832 1.94763 13.3053 2.06971C13.4274 2.19179 13.524 2.33687 13.5896 2.49656C13.6552 2.65625 13.6885 2.82737 13.6875 3.00001V7.99501L9.4725 10.5825C9.32735 10.6636 9.16313 10.7042 8.99693 10.7003C8.83073 10.6963 8.66863 10.6479 8.5275 10.56ZM6.1875 4.44001C6.18944 4.58859 6.24933 4.73053 6.3544 4.83561C6.45947 4.94068 6.60142 5.00056 6.75 5.00251H11.25C11.3992 5.00251 11.5423 4.94324 11.6477 4.83775C11.7532 4.73226 11.8125 4.58919 11.8125 4.44001C11.8125 4.29082 11.7532 4.14775 11.6477 4.04226C11.5423 3.93677 11.3992 3.87751 11.25 3.87751H6.75C6.60082 3.87751 6.45774 3.93677 6.35225 4.04226C6.24676 4.14775 6.1875 4.29082 6.1875 4.44001ZM6.75 7.19251H11.25C11.3992 7.19251 11.5423 7.13324 11.6477 7.02775C11.7532 6.92226 11.8125 6.77919 11.8125 6.63001C11.8125 6.48082 11.7532 6.33775 11.6477 6.23226C11.5423 6.12677 11.3992 6.06751 11.25 6.06751H6.75C6.60082 6.06751 6.45774 6.12677 6.35225 6.23226C6.24676 6.33775 6.1875 6.48082 6.1875 6.63001C6.1875 6.77919 6.24676 6.92226 6.35225 7.02775C6.45774 7.13324 6.60082 7.19251 6.75 7.19251Z" fill="#901D56"/>
</svg>
