<svg width="18" height="18" viewBox="0 0 18 18" fill="none" xmlns="http://www.w3.org/2000/svg">
<g clip-path="url(#clip0_97_2215)">
<path d="M4.55513 17.9847L4.88652 17.8921C5.20527 17.803 5.39145 17.4724 5.30238 17.1536L1.5136 3.59505C1.46013 3.4037 1.33285 3.24143 1.15974 3.14394C0.986629 3.04645 0.781881 3.02172 0.590538 3.07519L0.547742 3.08714C0.149267 3.19847 -0.0835081 3.61175 0.0278212 4.01023L3.8167 17.5688C3.90577 17.8876 4.23637 18.0738 4.55513 17.9847Z" fill="#901D56"/>
<path d="M17.8975 8.50967C16.696 7.91057 15.5844 7.14587 14.5954 6.23794C14.5123 6.16184 14.4797 6.04502 14.5116 5.93691C15.0017 4.08297 15.3656 2.19796 15.6009 0.29484C15.6382 -0.0217118 15.4675 -0.114815 15.2875 0.102426C11.7557 4.32622 5.64505 -0.670333 2.00781 3.16863C2.05148 3.25039 2.08583 3.3368 2.11023 3.42622L4.56816 12.2276C8.21161 8.43518 14.3006 13.4007 17.8261 9.18622C18.0061 8.96898 18.0402 8.57174 17.8975 8.50967Z" fill="#901D56"/>
</g>
<defs>
<clipPath id="clip0_97_2215">
<rect width="18" height="18" fill="white"/>
</clipPath>
</defs>
</svg>
