<svg width="24" height="24" viewBox="0 0 24 24" fill="none" xmlns="http://www.w3.org/2000/svg">
<path d="M9.89093 0.344047C9.60973 0.0487822 9.18792 -0.0636995 8.79424 0.0394088C8.40055 0.142517 8.09591 0.456529 7.9928 0.850215L7.2523 3.77943L4.34652 2.95925C3.95284 2.84677 3.53103 2.95925 3.24514 3.24514C2.95925 3.53103 2.84677 3.95284 2.95925 4.34652L3.77943 7.2523L0.850215 7.99749C0.456529 8.09591 0.147204 8.40524 0.0394088 8.79892C-0.0683862 9.19261 0.0487822 9.60973 0.344047 9.89093L2.50932 12L0.344047 14.109C0.0487822 14.3902 -0.0636995 14.812 0.0394088 15.2057C0.142517 15.5994 0.456529 15.904 0.850215 16.0071L3.77943 16.7476L2.95925 19.6534C2.84677 20.0471 2.95925 20.4689 3.24514 20.7548C3.53103 21.0407 3.95284 21.1532 4.34652 21.0407L7.2523 20.2205L7.9928 23.1497C8.09123 23.5434 8.40055 23.8527 8.79424 23.9605C9.18792 24.0683 9.60504 23.9511 9.89093 23.6606L12 21.4953L14.109 23.6606C14.3949 23.9511 14.812 24.0683 15.2057 23.9605C15.5994 23.8527 15.904 23.5434 16.0071 23.1497L16.7476 20.2205L19.6534 21.0407C20.0471 21.1532 20.4689 21.0407 20.7548 20.7548C21.0407 20.4689 21.1532 20.0471 21.0407 19.6534L20.2205 16.7476L23.1497 16.0071C23.5434 15.9087 23.8527 15.5994 23.9605 15.2057C24.0683 14.812 23.9511 14.3902 23.6606 14.109L21.4953 12L23.6606 9.89093C23.9511 9.60504 24.0683 9.18792 23.9605 8.79424C23.8527 8.40055 23.5434 8.09591 23.1497 7.9928L20.2205 7.2523L21.0407 4.34652C21.1532 3.95284 21.0407 3.53103 20.7548 3.24514C20.4689 2.95925 20.0471 2.84677 19.6534 2.95925L16.7476 3.77943L16.0024 0.850215C15.904 0.456529 15.5947 0.147204 15.201 0.0394088C14.8073 -0.0683862 14.3902 0.0487822 14.109 0.344047L12 2.50932L9.89093 0.344047Z" fill="#747474"/>
<path d="M9.89093 0.344047C9.60973 0.0487822 9.18792 -0.0636995 8.79424 0.0394088C8.40055 0.142517 8.09591 0.456529 7.9928 0.850215L7.2523 3.77943L4.34652 2.95925C3.95284 2.84677 3.53103 2.95925 3.24514 3.24514C2.95925 3.53103 2.84677 3.95284 2.95925 4.34652L3.77943 7.2523L0.850215 7.99749C0.456529 8.09591 0.147204 8.40524 0.0394088 8.79892C-0.0683862 9.19261 0.0487822 9.60973 0.344047 9.89093L2.50932 12L0.344047 14.109C0.0487822 14.3902 -0.0636995 14.812 0.0394088 15.2057C0.142517 15.5994 0.456529 15.904 0.850215 16.0071L3.77943 16.7476L2.95925 19.6534C2.84677 20.0471 2.95925 20.4689 3.24514 20.7548C3.53103 21.0407 3.95284 21.1532 4.34652 21.0407L7.2523 20.2205L7.9928 23.1497C8.09123 23.5434 8.40055 23.8527 8.79424 23.9605C9.18792 24.0683 9.60504 23.9511 9.89093 23.6606L12 21.4953L14.109 23.6606C14.3949 23.9511 14.812 24.0683 15.2057 23.9605C15.5994 23.8527 15.904 23.5434 16.0071 23.1497L16.7476 20.2205L19.6534 21.0407C20.0471 21.1532 20.4689 21.0407 20.7548 20.7548C21.0407 20.4689 21.1532 20.0471 21.0407 19.6534L20.2205 16.7476L23.1497 16.0071C23.5434 15.9087 23.8527 15.5994 23.9605 15.2057C24.0683 14.812 23.9511 14.3902 23.6606 14.109L21.4953 12L23.6606 9.89093C23.9511 9.60504 24.0683 9.18792 23.9605 8.79424C23.8527 8.40055 23.5434 8.09591 23.1497 7.9928L20.2205 7.2523L21.0407 4.34652C21.1532 3.95284 21.0407 3.53103 20.7548 3.24514C20.4689 2.95925 20.0471 2.84677 19.6534 2.95925L16.7476 3.77943L16.0024 0.850215C15.904 0.456529 15.5947 0.147204 15.201 0.0394088C14.8073 -0.0683862 14.3902 0.0487822 14.109 0.344047L12 2.50932L9.89093 0.344047Z" fill="url(#paint0_linear_18_99)"/>
<defs>
<linearGradient id="paint0_linear_18_99" x1="13.9401" y1="30.4615" x2="28.4196" y2="9.69507" gradientUnits="userSpaceOnUse">
<stop stop-color="#532C85"/>
<stop offset="1" stop-color="#BE2475"/>
</linearGradient>
</defs>
</svg>
