<svg width="18" height="17" viewBox="0 0 18 17" fill="none" xmlns="http://www.w3.org/2000/svg">
<g clip-path="url(#clip0_0_716)">
<path d="M12.325 -0.00387573H5.72564C2.99653 -0.00387573 0.776123 2.21653 0.776123 4.94565V8.79527C0.776123 11.4323 2.84887 13.5941 5.45067 13.7374V16.0318C5.45067 16.2894 5.66075 16.4989 5.91895 16.4989C6.04241 16.4989 6.15928 16.45 6.24754 16.3617L6.76339 15.8459C8.11791 14.4911 9.91926 13.7448 11.8353 13.7448H12.325C15.0541 13.7448 17.2745 11.5244 17.2745 8.79527V4.94565C17.2745 2.21653 15.0541 -0.00387573 12.325 -0.00387573ZM5.45067 7.97035C4.84408 7.97035 4.35078 7.47705 4.35078 6.87046C4.35078 6.26387 4.84408 5.77057 5.45067 5.77057C6.05726 5.77057 6.55056 6.26387 6.55056 6.87046C6.55056 7.47705 6.05699 7.97035 5.45067 7.97035ZM9.02533 7.97035C8.41873 7.97035 7.92543 7.47705 7.92543 6.87046C7.92543 6.26387 8.41873 5.77057 9.02533 5.77057C9.63192 5.77057 10.1252 6.26387 10.1252 6.87046C10.1252 7.47705 9.63164 7.97035 9.02533 7.97035ZM12.6 7.97035C11.9934 7.97035 11.5001 7.47705 11.5001 6.87046C11.5001 6.26387 11.9934 5.77057 12.6 5.77057C13.2066 5.77057 13.6999 6.26387 13.6999 6.87046C13.6999 7.47705 13.2063 7.97035 12.6 7.97035Z" fill="#D5702C"/>
</g>
<defs>
<clipPath id="clip0_0_716">
<rect width="16.5028" height="16.5028" fill="white" transform="translate(0.773438 -0.00382996)"/>
</clipPath>
</defs>
</svg>
