<svg width="18" height="16" viewBox="0 0 18 16" fill="none" xmlns="http://www.w3.org/2000/svg">
<path d="M3.5895 11.3719H14.4105L15.1633 7.98472C15.198 7.82859 15.1599 7.66512 15.0598 7.54035C14.9597 7.41558 14.8085 7.34298 14.6485 7.34298H3.35156C3.1916 7.34298 3.04029 7.41558 2.94023 7.54035C2.84011 7.66512 2.80207 7.82856 2.8368 7.98472L3.5895 11.3719ZM9.00001 9.35743C9.2911 9.35743 9.52735 9.59372 9.52735 9.88478C9.52735 10.1758 9.2911 10.4121 9.00001 10.4121C8.70892 10.4121 8.47266 10.1758 8.47266 9.88478C8.47266 9.59372 8.70892 9.35743 9.00001 9.35743Z" fill="#535353"/>
<path d="M3.5895 11.3719H14.4105L15.1633 7.98472C15.198 7.82859 15.1599 7.66512 15.0598 7.54035C14.9597 7.41558 14.8085 7.34298 14.6485 7.34298H3.35156C3.1916 7.34298 3.04029 7.41558 2.94023 7.54035C2.84011 7.66512 2.80207 7.82856 2.8368 7.98472L3.5895 11.3719ZM9.00001 9.35743C9.2911 9.35743 9.52735 9.59372 9.52735 9.88478C9.52735 10.1758 9.2911 10.4121 9.00001 10.4121C8.70892 10.4121 8.47266 10.1758 8.47266 9.88478C8.47266 9.59372 8.70892 9.35743 9.00001 9.35743Z" fill="#535353"/>
<path d="M3.5895 11.3719H14.4105L15.1633 7.98472C15.198 7.82859 15.1599 7.66512 15.0598 7.54035C14.9597 7.41558 14.8085 7.34298 14.6485 7.34298H3.35156C3.1916 7.34298 3.04029 7.41558 2.94023 7.54035C2.84011 7.66512 2.80207 7.82856 2.8368 7.98472L3.5895 11.3719ZM9.00001 9.35743C9.2911 9.35743 9.52735 9.59372 9.52735 9.88478C9.52735 10.1758 9.2911 10.4121 9.00001 10.4121C8.70892 10.4121 8.47266 10.1758 8.47266 9.88478C8.47266 9.59372 8.70892 9.35743 9.00001 9.35743Z" fill="url(#paint0_linear_18_172)"/>
<path d="M8.99962 5.04612C10.3931 5.04612 11.5227 3.91651 11.5227 2.52306C11.5227 1.12961 10.3931 0 8.99962 0C7.60617 0 6.47656 1.12961 6.47656 2.52306C6.47656 3.91651 7.60617 5.04612 8.99962 5.04612Z" fill="#535353"/>
<path d="M8.99962 5.04612C10.3931 5.04612 11.5227 3.91651 11.5227 2.52306C11.5227 1.12961 10.3931 0 8.99962 0C7.60617 0 6.47656 1.12961 6.47656 2.52306C6.47656 3.91651 7.60617 5.04612 8.99962 5.04612Z" fill="#535353"/>
<path d="M8.99962 5.04612C10.3931 5.04612 11.5227 3.91651 11.5227 2.52306C11.5227 1.12961 10.3931 0 8.99962 0C7.60617 0 6.47656 1.12961 6.47656 2.52306C6.47656 3.91651 7.60617 5.04612 8.99962 5.04612Z" fill="url(#paint1_linear_18_172)"/>
<path d="M10.1294 5.04614H8.9997H7.86998C6.82064 5.04614 5.88257 5.53102 5.26758 6.28832H12.7318C12.1168 5.53102 11.1787 5.04614 10.1294 5.04614Z" fill="#535353"/>
<path d="M10.1294 5.04614H8.9997H7.86998C6.82064 5.04614 5.88257 5.53102 5.26758 6.28832H12.7318C12.1168 5.53102 11.1787 5.04614 10.1294 5.04614Z" fill="#535353"/>
<path d="M10.1294 5.04614H8.9997H7.86998C6.82064 5.04614 5.88257 5.53102 5.26758 6.28832H12.7318C12.1168 5.53102 11.1787 5.04614 10.1294 5.04614Z" fill="url(#paint2_linear_18_172)"/>
<path d="M17.4727 12.4266H0.527344C0.236109 12.4266 0 12.6627 0 12.9539V15.2133C0 15.5045 0.236109 15.7406 0.527344 15.7406H17.4727C17.7639 15.7406 18 15.5045 18 15.2133V12.9539C18 12.6627 17.7639 12.4266 17.4727 12.4266Z" fill="#535353"/>
<path d="M17.4727 12.4266H0.527344C0.236109 12.4266 0 12.6627 0 12.9539V15.2133C0 15.5045 0.236109 15.7406 0.527344 15.7406H17.4727C17.7639 15.7406 18 15.5045 18 15.2133V12.9539C18 12.6627 17.7639 12.4266 17.4727 12.4266Z" fill="#535353"/>
<path d="M17.4727 12.4266H0.527344C0.236109 12.4266 0 12.6627 0 12.9539V15.2133C0 15.5045 0.236109 15.7406 0.527344 15.7406H17.4727C17.7639 15.7406 18 15.5045 18 15.2133V12.9539C18 12.6627 17.7639 12.4266 17.4727 12.4266Z" fill="url(#paint3_linear_18_172)"/>
<defs>
<linearGradient id="paint0_linear_18_172" x1="9.9985" y1="12.4566" x2="11.1189" y2="7.5305" gradientUnits="userSpaceOnUse">
<stop stop-color="#532C85"/>
<stop offset="1" stop-color="#BE2475"/>
</linearGradient>
<linearGradient id="paint1_linear_18_172" x1="9.40754" y1="6.40469" x2="12.4519" y2="2.03844" gradientUnits="userSpaceOnUse">
<stop stop-color="#532C85"/>
<stop offset="1" stop-color="#BE2475"/>
</linearGradient>
<linearGradient id="paint2_linear_18_172" x1="9.60309" y1="6.62275" x2="9.78598" y2="5.04662" gradientUnits="userSpaceOnUse">
<stop stop-color="#532C85"/>
<stop offset="1" stop-color="#BE2475"/>
</linearGradient>
<linearGradient id="paint3_linear_18_172" x1="10.4551" y1="16.6329" x2="10.9933" y2="12.4403" gradientUnits="userSpaceOnUse">
<stop stop-color="#532C85"/>
<stop offset="1" stop-color="#BE2475"/>
</linearGradient>
</defs>
</svg>
