<svg width="18" height="18" viewBox="0 0 18 18" fill="none" xmlns="http://www.w3.org/2000/svg">
<path d="M1.6875 6.1875V5.34375C1.68832 4.67267 1.95527 4.02931 2.42979 3.55479C2.90431 3.08027 3.54767 2.81332 4.21875 2.8125H5.0625V3.65625C5.0625 3.95462 5.18103 4.24077 5.392 4.45175C5.60298 4.66272 5.88913 4.78125 6.1875 4.78125C6.48587 4.78125 6.77202 4.66272 6.983 4.45175C7.19397 4.24077 7.3125 3.95462 7.3125 3.65625V2.8125H10.6875V3.65625C10.6875 3.95462 10.806 4.24077 11.017 4.45175C11.228 4.66272 11.5141 4.78125 11.8125 4.78125C12.1109 4.78125 12.397 4.66272 12.608 4.45175C12.819 4.24077 12.9375 3.95462 12.9375 3.65625V2.8125H13.7812C14.4523 2.81332 15.0957 3.08027 15.5702 3.55479C16.0447 4.02931 16.3117 4.67267 16.3125 5.34375V6.1875H1.6875ZM5.625 3.65625C5.625 3.80543 5.68426 3.94851 5.78975 4.054C5.89524 4.15949 6.03832 4.21875 6.1875 4.21875C6.33668 4.21875 6.47976 4.15949 6.58525 4.054C6.69074 3.94851 6.75 3.80543 6.75 3.65625V2.25C6.75 2.10082 6.69074 1.95774 6.58525 1.85225C6.47976 1.74676 6.33668 1.6875 6.1875 1.6875C6.03832 1.6875 5.89524 1.74676 5.78975 1.85225C5.68426 1.95774 5.625 2.10082 5.625 2.25V3.65625ZM11.25 2.25V3.65625C11.25 3.80543 11.3093 3.94851 11.4148 4.054C11.5202 4.15949 11.6633 4.21875 11.8125 4.21875C11.9617 4.21875 12.1048 4.15949 12.2102 4.054C12.3157 3.94851 12.375 3.80543 12.375 3.65625V2.25C12.375 2.10082 12.3157 1.95774 12.2102 1.85225C12.1048 1.74676 11.9617 1.6875 11.8125 1.6875C11.6633 1.6875 11.5202 1.74676 11.4148 1.85225C11.3093 1.95774 11.25 2.10082 11.25 2.25ZM16.3125 6.75V12.6562C16.3117 13.3273 16.0447 13.9707 15.5702 14.4452C15.0957 14.9197 14.4523 15.1867 13.7812 15.1875H4.21875C3.54767 15.1867 2.90431 14.9197 2.42979 14.4452C1.95527 13.9707 1.68832 13.3273 1.6875 12.6562V6.75H16.3125ZM11.0551 9.93066H9.89381L9.53438 8.82619C9.49739 8.71365 9.42581 8.61566 9.32985 8.54619C9.2339 8.47673 9.11846 8.43933 9 8.43933C8.88154 8.43933 8.7661 8.47673 8.67015 8.54619C8.57419 8.61566 8.50261 8.71365 8.46563 8.82619L8.10675 9.93066H6.94491C6.82611 9.93063 6.71036 9.96822 6.61424 10.038C6.51812 10.1078 6.44657 10.2063 6.40985 10.3193C6.37313 10.4323 6.37312 10.554 6.40982 10.6669C6.44652 10.7799 6.51805 10.8784 6.61416 10.9482L7.55381 11.6308L7.19494 12.7353C7.15821 12.8483 7.1582 12.97 7.19491 13.083C7.23162 13.196 7.30317 13.2944 7.39929 13.3643C7.49541 13.4341 7.61117 13.4717 7.72997 13.4717C7.84878 13.4716 7.96453 13.434 8.06063 13.3642L9 12.6816L9.93937 13.3642C10.0355 13.434 10.1512 13.4716 10.27 13.4717C10.3888 13.4717 10.5046 13.4341 10.6007 13.3643C10.6968 13.2944 10.7684 13.196 10.8051 13.083C10.8418 12.97 10.8418 12.8483 10.8051 12.7353L10.4462 11.6308L11.3858 10.9482C11.482 10.8784 11.5535 10.7799 11.5902 10.6669C11.6269 10.554 11.6269 10.4323 11.5902 10.3193C11.5534 10.2063 11.4819 10.1078 11.3858 10.038C11.2896 9.96822 11.1739 9.93063 11.0551 9.93066Z" fill="#901D56"/>
</svg>
