<svg width="27" height="20" viewBox="0 0 27 20" fill="none" xmlns="http://www.w3.org/2000/svg">
<path d="M13.5006 0.375C13.1589 0.375 12.8214 0.435156 12.5008 0.551172L0.667212 4.90391C0.266431 5.0543 0.000649361 5.44102 0.000649361 5.875C0.000649361 6.30898 0.266431 6.6957 0.667212 6.84609L3.10987 7.74414C2.41799 8.85273 2.02565 10.1633 2.02565 11.5426V12.75C2.02565 13.9703 1.57002 15.2293 1.08487 16.2219C0.810649 16.7805 0.498462 17.3305 0.135649 17.8375C0.000649363 18.0223 -0.0373194 18.2629 0.0386181 18.482C0.114556 18.7012 0.291743 18.8645 0.511118 18.9203L3.21112 19.6078C3.38831 19.6551 3.57815 19.6207 3.73424 19.5219C3.89034 19.423 4.00002 19.2598 4.03377 19.075C4.39659 17.2359 4.21518 15.5859 3.94518 14.4043C3.81018 13.7941 3.62877 13.1711 3.37565 12.5996V11.5426C3.37565 10.2449 3.80596 9.02031 4.55268 8.04062C5.0969 7.37461 5.80143 6.8375 6.62831 6.50664L13.2517 3.85547C13.5977 3.71797 13.99 3.88984 14.125 4.24219C14.26 4.59453 14.0913 4.99414 13.7453 5.13164L7.1219 7.78281C6.59877 7.99336 6.13893 8.31563 5.76346 8.71094L12.4966 11.1859C12.8172 11.302 13.1547 11.3621 13.4964 11.3621C13.8381 11.3621 14.1756 11.302 14.4963 11.1859L26.3341 6.84609C26.7349 6.7 27.0006 6.30898 27.0006 5.875C27.0006 5.44102 26.7349 5.0543 26.3341 4.90391L14.5005 0.551172C14.1799 0.435156 13.8424 0.375 13.5006 0.375ZM5.40065 16.5312C5.40065 18.048 9.02877 19.625 13.5006 19.625C17.9725 19.625 21.6006 18.048 21.6006 16.5312L20.9552 10.2836L14.9561 12.4922C14.4878 12.6641 13.9942 12.75 13.5006 12.75C13.0071 12.75 12.5092 12.6641 12.0452 12.4922L6.04612 10.2836L5.40065 16.5312Z" fill="#6E6E6E"/>
<path d="M13.5006 0.375C13.1589 0.375 12.8214 0.435156 12.5008 0.551172L0.667212 4.90391C0.266431 5.0543 0.000649361 5.44102 0.000649361 5.875C0.000649361 6.30898 0.266431 6.6957 0.667212 6.84609L3.10987 7.74414C2.41799 8.85273 2.02565 10.1633 2.02565 11.5426V12.75C2.02565 13.9703 1.57002 15.2293 1.08487 16.2219C0.810649 16.7805 0.498462 17.3305 0.135649 17.8375C0.000649363 18.0223 -0.0373194 18.2629 0.0386181 18.482C0.114556 18.7012 0.291743 18.8645 0.511118 18.9203L3.21112 19.6078C3.38831 19.6551 3.57815 19.6207 3.73424 19.5219C3.89034 19.423 4.00002 19.2598 4.03377 19.075C4.39659 17.2359 4.21518 15.5859 3.94518 14.4043C3.81018 13.7941 3.62877 13.1711 3.37565 12.5996V11.5426C3.37565 10.2449 3.80596 9.02031 4.55268 8.04062C5.0969 7.37461 5.80143 6.8375 6.62831 6.50664L13.2517 3.85547C13.5977 3.71797 13.99 3.88984 14.125 4.24219C14.26 4.59453 14.0913 4.99414 13.7453 5.13164L7.1219 7.78281C6.59877 7.99336 6.13893 8.31563 5.76346 8.71094L12.4966 11.1859C12.8172 11.302 13.1547 11.3621 13.4964 11.3621C13.8381 11.3621 14.1756 11.302 14.4963 11.1859L26.3341 6.84609C26.7349 6.7 27.0006 6.30898 27.0006 5.875C27.0006 5.44102 26.7349 5.0543 26.3341 4.90391L14.5005 0.551172C14.1799 0.435156 13.8424 0.375 13.5006 0.375ZM5.40065 16.5312C5.40065 18.048 9.02877 19.625 13.5006 19.625C17.9725 19.625 21.6006 18.048 21.6006 16.5312L20.9552 10.2836L14.9561 12.4922C14.4878 12.6641 13.9942 12.75 13.5006 12.75C13.0071 12.75 12.5092 12.6641 12.0452 12.4922L6.04612 10.2836L5.40065 16.5312Z" fill="url(#paint0_linear_18_91)"/>
<defs>
<linearGradient id="paint0_linear_18_91" x1="15.683" y1="24.8125" x2="25.5532" y2="4.96094" gradientUnits="userSpaceOnUse">
<stop stop-color="#532C85"/>
<stop offset="1" stop-color="#BE2475"/>
</linearGradient>
</defs>
</svg>
