<svg width="133" height="26" viewBox="0 0 133 26" fill="none" xmlns="http://www.w3.org/2000/svg">
<rect x="0.5" y="0.5" width="132" height="25" rx="12.5" stroke="#535353"/>
<path d="M39.0508 9.10986H44.8032V10.0767H40.0928V12.4722H44.4487V13.3853H40.0928V16.0601H44.8838V17H39.0508V9.10986ZM46.1567 11.2476H47.0752V12.064C47.3473 11.7274 47.6356 11.4857 47.9399 11.3389C48.2443 11.1921 48.5827 11.1187 48.9551 11.1187C49.7715 11.1187 50.3229 11.4033 50.6094 11.9727C50.7669 12.2842 50.8457 12.73 50.8457 13.3101V17H49.8628V13.3745C49.8628 13.0236 49.8109 12.7407 49.707 12.5259C49.5352 12.1678 49.2236 11.9888 48.7725 11.9888C48.5433 11.9888 48.3553 12.012 48.2085 12.0586C47.9435 12.1374 47.7108 12.2949 47.5103 12.5312C47.3491 12.721 47.2435 12.918 47.1934 13.1221C47.1468 13.3226 47.1235 13.6108 47.1235 13.9868V17H46.1567V11.2476ZM54.3101 11.1455C54.7612 11.1455 55.1551 11.2565 55.4917 11.4785C55.6743 11.6038 55.8605 11.7865 56.0503 12.0264V11.3013H56.9419V16.5327C56.9419 17.2632 56.8345 17.8397 56.6196 18.2622C56.2186 19.0428 55.4613 19.4331 54.3477 19.4331C53.7282 19.4331 53.2072 19.2935 52.7847 19.0142C52.3621 18.7384 52.1258 18.3052 52.0757 17.7144H53.0586C53.1051 17.9722 53.1982 18.1709 53.3379 18.3105C53.5563 18.5254 53.9001 18.6328 54.3691 18.6328C55.1104 18.6328 55.5955 18.3714 55.8247 17.8486C55.9608 17.5407 56.0234 16.991 56.0127 16.1997C55.8193 16.4933 55.5866 16.7118 55.3145 16.855C55.0423 16.9982 54.6825 17.0698 54.2349 17.0698C53.6118 17.0698 53.0658 16.8496 52.5967 16.4092C52.1312 15.9652 51.8984 15.2329 51.8984 14.2124C51.8984 13.2492 52.133 12.4972 52.6021 11.9565C53.0747 11.4159 53.644 11.1455 54.3101 11.1455ZM56.0503 14.0996C56.0503 13.387 55.9035 12.8589 55.6099 12.5151C55.3162 12.1714 54.9421 11.9995 54.4873 11.9995C53.807 11.9995 53.3415 12.3182 53.0908 12.9556C52.9583 13.2957 52.8921 13.7415 52.8921 14.293C52.8921 14.9411 53.0228 15.4352 53.2842 15.7754C53.5492 16.112 53.9036 16.2803 54.3477 16.2803C55.0423 16.2803 55.5311 15.967 55.814 15.3403C55.9715 14.9858 56.0503 14.5723 56.0503 14.0996ZM58.4297 9.10986H59.3965V17H58.4297V9.10986ZM60.8521 11.2744H61.835V17H60.8521V11.2744ZM60.8521 9.10986H61.835V10.2056H60.8521V9.10986ZM63.876 15.1953C63.9046 15.5176 63.9852 15.7646 64.1177 15.9365C64.3612 16.248 64.7837 16.4038 65.3853 16.4038C65.7433 16.4038 66.0584 16.3268 66.3306 16.1729C66.6027 16.0153 66.7388 15.7736 66.7388 15.4478C66.7388 15.2007 66.6296 15.0127 66.4111 14.8838C66.2715 14.805 65.9958 14.7137 65.584 14.6099L64.8159 14.4165C64.3254 14.2948 63.9637 14.1587 63.731 14.0083C63.3156 13.7469 63.1079 13.3853 63.1079 12.9233C63.1079 12.3791 63.3031 11.9386 63.6934 11.6021C64.0872 11.2655 64.6154 11.0972 65.2778 11.0972C66.1444 11.0972 66.7692 11.3514 67.1523 11.8599C67.3923 12.1821 67.5086 12.5295 67.5015 12.9019H66.5884C66.5705 12.6834 66.4935 12.4847 66.3574 12.3057C66.1354 12.0514 65.7505 11.9243 65.2026 11.9243C64.8374 11.9243 64.5599 11.9941 64.3701 12.1338C64.1839 12.2734 64.0908 12.4578 64.0908 12.687C64.0908 12.9377 64.2144 13.1382 64.4614 13.2886C64.6047 13.3781 64.8159 13.4569 65.0952 13.5249L65.7344 13.6807C66.429 13.849 66.8945 14.0119 67.1309 14.1694C67.5068 14.4165 67.6948 14.805 67.6948 15.335C67.6948 15.847 67.4997 16.2892 67.1094 16.6616C66.7227 17.034 66.1318 17.2202 65.3369 17.2202C64.4811 17.2202 63.8742 17.0269 63.5161 16.6401C63.1616 16.2498 62.9718 15.7682 62.9468 15.1953H63.876ZM68.8013 9.08301H69.7681V12.0264C69.9972 11.7363 70.2031 11.5322 70.3857 11.4141C70.6973 11.21 71.0858 11.1079 71.5513 11.1079C72.3856 11.1079 72.9513 11.3997 73.2485 11.9834C73.4097 12.3021 73.4902 12.7443 73.4902 13.3101V17H72.4966V13.3745C72.4966 12.952 72.4429 12.6423 72.3354 12.4453C72.16 12.1302 71.8306 11.9727 71.3472 11.9727C70.9461 11.9727 70.5827 12.1105 70.2568 12.3862C69.931 12.6619 69.7681 13.1829 69.7681 13.9492V17H68.8013V9.08301ZM80.5317 8.98096C79.9696 10.0731 79.6043 10.877 79.436 11.3926C79.1818 12.1768 79.0547 13.0827 79.0547 14.1104C79.0547 15.1488 79.1997 16.0977 79.4897 16.957C79.6688 17.487 80.0215 18.2497 80.5479 19.2451H79.8979C79.3752 18.4287 79.0511 17.9077 78.9258 17.6821C78.8005 17.4565 78.6644 17.1504 78.5176 16.7637C78.3171 16.2337 78.1774 15.668 78.0986 15.0664C78.0592 14.7549 78.0396 14.4577 78.0396 14.1748C78.0396 13.1149 78.2061 12.1714 78.5391 11.3442C78.7503 10.8179 79.1908 10.0301 79.8604 8.98096H80.5317ZM82.938 9.10986V13.9868C82.938 14.5597 83.0454 15.036 83.2603 15.4155C83.5789 15.9884 84.116 16.2749 84.8716 16.2749C85.7775 16.2749 86.3934 15.9652 86.7192 15.3457C86.8947 15.0091 86.9824 14.5562 86.9824 13.9868V9.10986H88.0674V13.541C88.0674 14.5114 87.9367 15.258 87.6753 15.7808C87.1955 16.7332 86.2896 17.2095 84.9575 17.2095C83.6255 17.2095 82.7214 16.7332 82.2451 15.7808C81.9837 15.258 81.853 14.5114 81.853 13.541V9.10986H82.938ZM90.4253 14.4541C90.4504 14.9017 90.556 15.2651 90.7422 15.5444C91.0967 16.0672 91.7215 16.3286 92.6167 16.3286C93.0177 16.3286 93.383 16.2713 93.7124 16.1567C94.3498 15.9347 94.6685 15.5373 94.6685 14.9644C94.6685 14.5347 94.5342 14.2285 94.2656 14.0459C93.9935 13.8669 93.5674 13.7111 92.9873 13.5786L91.9185 13.3369C91.2202 13.1794 90.7261 13.0057 90.436 12.8159C89.9347 12.4865 89.6841 11.9941 89.6841 11.3389C89.6841 10.6299 89.9294 10.048 90.4199 9.59326C90.9105 9.13851 91.6051 8.91113 92.5039 8.91113C93.3311 8.91113 94.0329 9.11165 94.6094 9.5127C95.1895 9.91016 95.4795 10.5475 95.4795 11.4248H94.4751C94.4214 11.0023 94.3068 10.6782 94.1313 10.4526C93.8055 10.0409 93.2523 9.83496 92.4717 9.83496C91.8415 9.83496 91.3885 9.96745 91.1128 10.2324C90.8371 10.4974 90.6992 10.8053 90.6992 11.1562C90.6992 11.543 90.8604 11.8258 91.1826 12.0049C91.3939 12.1195 91.8719 12.2627 92.6167 12.4346L93.7231 12.687C94.2567 12.8088 94.6685 12.9753 94.9585 13.1865C95.4598 13.5553 95.7104 14.0907 95.7104 14.7925C95.7104 15.6662 95.3918 16.291 94.7544 16.667C94.1206 17.043 93.383 17.231 92.5415 17.231C91.5604 17.231 90.7923 16.9803 90.2373 16.479C89.6823 15.9813 89.4102 15.3063 89.4209 14.4541H90.4253ZM96.6074 19.2451C97.1768 18.1351 97.5438 17.3258 97.7085 16.8174C97.9591 16.0475 98.0845 15.1452 98.0845 14.1104C98.0845 13.0755 97.9395 12.1284 97.6494 11.269C97.4704 10.7391 97.1177 9.9764 96.5913 8.98096H97.2412C97.7926 9.86182 98.1257 10.4061 98.2402 10.6138C98.3584 10.8179 98.4855 11.1007 98.6216 11.4624C98.7935 11.91 98.9152 12.3522 98.9868 12.7891C99.062 13.2259 99.0996 13.6466 99.0996 14.0513C99.0996 15.1112 98.9313 16.0565 98.5947 16.8872C98.3835 17.4207 97.9448 18.2067 97.2788 19.2451H96.6074Z" fill="#535353"/>
<mask id="mask0_1159_116" style="mask-type:luminance" maskUnits="userSpaceOnUse" x="14" y="6" width="15" height="15">
<path d="M28.65 20.65V6.35H14.35V20.65H28.65Z" fill="white" stroke="white" stroke-width="0.7"/>
</mask>
<g mask="url(#mask0_1159_116)">
<path d="M17.8965 16.8396L19.1505 13.5471C19.1761 13.4844 19.2648 13.4843 19.2906 13.5469L20.5332 16.8396" stroke="#535353" stroke-width="0.7" stroke-miterlimit="10" stroke-linecap="round" stroke-linejoin="round"/>
<path d="M18.2876 16.0196H20.1484" stroke="#535353" stroke-width="0.7" stroke-miterlimit="10" stroke-linecap="round" stroke-linejoin="round"/>
<path d="M21.8223 8.85645H25.748" stroke="#535353" stroke-width="0.7" stroke-miterlimit="10" stroke-linecap="round" stroke-linejoin="round"/>
<path d="M24.492 8.85645V9.14019C24.492 10.6185 23.3916 11.8657 21.9248 12.0498" stroke="#535353" stroke-width="0.7" stroke-miterlimit="10" stroke-linecap="round" stroke-linejoin="round"/>
<path d="M23.0784 8.85645V9.14019C23.0784 10.6185 24.1788 11.8657 25.6456 12.0498" stroke="#535353" stroke-width="0.7" stroke-miterlimit="10" stroke-linecap="round" stroke-linejoin="round"/>
<path d="M23.7852 8.85645V7.80176" stroke="#535353" stroke-width="0.7" stroke-miterlimit="10" stroke-linecap="round" stroke-linejoin="round"/>
<path d="M22.4668 6.29297H20.1242C19.4278 6.29297 18.8633 6.85749 18.8633 7.55388V12.2977C18.8633 12.9941 19.4278 13.5586 20.1242 13.5586H25.25L27.4461 15.4336V13.5586C28.1425 13.5586 28.707 12.9941 28.707 12.2977V7.55388C28.707 6.85749 28.1425 6.29297 27.4461 6.29297H25.1035" stroke="#535353" stroke-width="0.7" stroke-miterlimit="10" stroke-linecap="round" stroke-linejoin="round"/>
<path d="M24.1367 13.5586V17.5711C24.1367 18.2675 23.5722 18.832 22.8758 18.832H17.75L15.5539 20.707V18.832C14.8575 18.832 14.293 18.2675 14.293 17.5711V12.8273C14.293 12.1309 14.8575 11.5664 15.5539 11.5664H18.8633" stroke="#535353" stroke-width="0.7" stroke-miterlimit="10" stroke-linecap="round" stroke-linejoin="round"/>
</g>
<g clip-path="url(#clip0_1159_116)">
<path d="M118.929 17.2017L122.731 11.6471C122.907 11.3905 123 11.1321 123 10.9172C123 10.5019 122.667 10.245 122.109 10.245L113.89 10.245C113.333 10.245 113 10.5016 113 10.9159C113 11.1311 113.093 11.3854 113.269 11.6425L117.072 17.1997C117.317 17.5571 117.646 17.755 118 17.755C118.354 17.7551 118.684 17.5595 118.929 17.2017Z" fill="#535353"/>
</g>
<defs>
<clipPath id="clip0_1159_116">
<rect width="10" height="10" fill="white" transform="translate(123 9) rotate(90)"/>
</clipPath>
</defs>
</svg>
