<svg width="70" height="70" viewBox="0 0 70 70" fill="none" xmlns="http://www.w3.org/2000/svg">
<path d="M0 13.125C0 8.29883 3.92383 4.375 8.75 4.375H61.25C66.0762 4.375 70 8.29883 70 13.125V56.875C70 61.7012 66.0762 65.625 61.25 65.625H8.75C3.92383 65.625 0 61.7012 0 56.875V13.125ZM44.2695 27.6855C43.6543 26.7832 42.6426 26.25 41.5625 26.25C40.4824 26.25 39.457 26.7832 38.8555 27.6855L26.9609 45.1309L23.3379 40.6055C22.709 39.8262 21.7656 39.375 20.7812 39.375C19.7969 39.375 18.8398 39.8262 18.2246 40.6055L9.47461 51.543C8.68164 52.5273 8.53125 53.8809 9.07812 55.0156C9.625 56.1504 10.7734 56.875 12.0312 56.875H25.1562H29.5312H57.9688C59.1855 56.875 60.3066 56.2051 60.8672 55.125C61.4277 54.0449 61.3594 52.7461 60.6758 51.748L44.2695 27.6855ZM15.3125 26.25C17.053 26.25 18.7222 25.5586 19.9529 24.3279C21.1836 23.0972 21.875 21.428 21.875 19.6875C21.875 17.947 21.1836 16.2778 19.9529 15.0471C18.7222 13.8164 17.053 13.125 15.3125 13.125C13.572 13.125 11.9028 13.8164 10.6721 15.0471C9.4414 16.2778 8.75 17.947 8.75 19.6875C8.75 21.428 9.4414 23.0972 10.6721 24.3279C11.9028 25.5586 13.572 26.25 15.3125 26.25Z" fill="black"/>
<path d="M0 13.125C0 8.29883 3.92383 4.375 8.75 4.375H61.25C66.0762 4.375 70 8.29883 70 13.125V56.875C70 61.7012 66.0762 65.625 61.25 65.625H8.75C3.92383 65.625 0 61.7012 0 56.875V13.125ZM44.2695 27.6855C43.6543 26.7832 42.6426 26.25 41.5625 26.25C40.4824 26.25 39.457 26.7832 38.8555 27.6855L26.9609 45.1309L23.3379 40.6055C22.709 39.8262 21.7656 39.375 20.7812 39.375C19.7969 39.375 18.8398 39.8262 18.2246 40.6055L9.47461 51.543C8.68164 52.5273 8.53125 53.8809 9.07812 55.0156C9.625 56.1504 10.7734 56.875 12.0312 56.875H25.1562H29.5312H57.9688C59.1855 56.875 60.3066 56.2051 60.8672 55.125C61.4277 54.0449 61.3594 52.7461 60.6758 51.748L44.2695 27.6855ZM15.3125 26.25C17.053 26.25 18.7222 25.5586 19.9529 24.3279C21.1836 23.0972 21.875 21.428 21.875 19.6875C21.875 17.947 21.1836 16.2778 19.9529 15.0471C18.7222 13.8164 17.053 13.125 15.3125 13.125C13.572 13.125 11.9028 13.8164 10.6721 15.0471C9.4414 16.2778 8.75 17.947 8.75 19.6875C8.75 21.428 9.4414 23.0972 10.6721 24.3279C11.9028 25.5586 13.572 26.25 15.3125 26.25Z" fill="#D2D2D2"/>
</svg>
