<svg width="70" height="62" viewBox="0 0 70 62" fill="none" xmlns="http://www.w3.org/2000/svg">
<path d="M0 9.125C0 4.29883 3.92383 0.375 8.75 0.375H61.25C66.0762 0.375 70 4.29883 70 9.125V52.875C70 57.7012 66.0762 61.625 61.25 61.625H8.75C3.92383 61.625 0 57.7012 0 52.875V9.125ZM44.2695 23.6855C43.6543 22.7832 42.6426 22.25 41.5625 22.25C40.4824 22.25 39.457 22.7832 38.8555 23.6855L26.9609 41.1309L23.3379 36.6055C22.709 35.8262 21.7656 35.375 20.7812 35.375C19.7969 35.375 18.8398 35.8262 18.2246 36.6055L9.47461 47.543C8.68164 48.5273 8.53125 49.8809 9.07812 51.0156C9.625 52.1504 10.7734 52.875 12.0312 52.875H25.1562H29.5312H57.9688C59.1855 52.875 60.3066 52.2051 60.8672 51.125C61.4277 50.0449 61.3594 48.7461 60.6758 47.748L44.2695 23.6855ZM15.3125 22.25C17.053 22.25 18.7222 21.5586 19.9529 20.3279C21.1836 19.0972 21.875 17.428 21.875 15.6875C21.875 13.947 21.1836 12.2778 19.9529 11.0471C18.7222 9.8164 17.053 9.125 15.3125 9.125C13.572 9.125 11.9028 9.8164 10.6721 11.0471C9.4414 12.2778 8.75 13.947 8.75 15.6875C8.75 17.428 9.4414 19.0972 10.6721 20.3279C11.9028 21.5586 13.572 22.25 15.3125 22.25Z" fill="black"/>
<path d="M0 9.125C0 4.29883 3.92383 0.375 8.75 0.375H61.25C66.0762 0.375 70 4.29883 70 9.125V52.875C70 57.7012 66.0762 61.625 61.25 61.625H8.75C3.92383 61.625 0 57.7012 0 52.875V9.125ZM44.2695 23.6855C43.6543 22.7832 42.6426 22.25 41.5625 22.25C40.4824 22.25 39.457 22.7832 38.8555 23.6855L26.9609 41.1309L23.3379 36.6055C22.709 35.8262 21.7656 35.375 20.7812 35.375C19.7969 35.375 18.8398 35.8262 18.2246 36.6055L9.47461 47.543C8.68164 48.5273 8.53125 49.8809 9.07812 51.0156C9.625 52.1504 10.7734 52.875 12.0312 52.875H25.1562H29.5312H57.9688C59.1855 52.875 60.3066 52.2051 60.8672 51.125C61.4277 50.0449 61.3594 48.7461 60.6758 47.748L44.2695 23.6855ZM15.3125 22.25C17.053 22.25 18.7222 21.5586 19.9529 20.3279C21.1836 19.0972 21.875 17.428 21.875 15.6875C21.875 13.947 21.1836 12.2778 19.9529 11.0471C18.7222 9.8164 17.053 9.125 15.3125 9.125C13.572 9.125 11.9028 9.8164 10.6721 11.0471C9.4414 12.2778 8.75 13.947 8.75 15.6875C8.75 17.428 9.4414 19.0972 10.6721 20.3279C11.9028 21.5586 13.572 22.25 15.3125 22.25Z" fill="#D2D2D2"/>
</svg>
