<svg width="24" height="24" viewBox="0 0 24 24" fill="none" xmlns="http://www.w3.org/2000/svg">
<path d="M3.14655 9.34711L3.57803 10.0748C3.95901 10.7182 4.58327 11.193 5.32228 11.3971L7.97996 12.1292C8.76947 12.3466 9.3111 13.0432 9.3111 13.8375V15.6079C9.3111 16.096 9.59569 16.5397 10.0455 16.7571C10.4954 16.9745 10.7799 17.4182 10.7799 17.9063V19.6368C10.7799 20.329 11.4639 20.8304 12.1524 20.6396C12.8914 20.4355 13.4652 19.8631 13.6534 19.1399L13.7819 18.6429C13.9747 17.893 14.4796 17.2496 15.1727 16.868L15.5445 16.6639C16.233 16.2868 16.6553 15.5768 16.6553 14.8137V14.4454C16.6553 13.8819 16.4212 13.3405 16.0081 12.9412L15.8291 12.7681C15.416 12.3688 14.856 12.1425 14.273 12.1425H12.2947C11.7852 12.1425 11.2803 12.0138 10.835 11.7698L9.25143 10.8957C9.05406 10.7847 8.90258 10.6073 8.82914 10.3987C8.68225 9.97274 8.87963 9.51128 9.29733 9.31161L9.56815 9.1785C9.8711 9.03207 10.2245 9.00545 10.5458 9.11194L11.6108 9.4536C11.9872 9.5734 12.4003 9.43585 12.616 9.12081C12.8317 8.81021 12.8088 8.39756 12.5609 8.10915L11.9367 7.3859C11.4776 6.85344 11.4822 6.07694 11.9504 5.55336L12.6711 4.74137C13.075 4.28434 13.1393 3.63208 12.8317 3.11294L12.7216 2.92658C12.5609 2.91771 12.4049 2.91327 12.2442 2.91327C7.98455 2.91327 4.37212 5.61548 3.14655 9.34711ZM21.7963 12.1425C21.7963 10.5096 21.3556 8.97439 20.5845 7.63881L19.4094 8.09584C18.6887 8.37538 18.3169 9.15187 18.5602 9.86181L19.336 12.1114C19.4966 12.5729 19.8868 12.9234 20.3733 13.0388L21.7091 13.3627C21.7641 12.9634 21.7917 12.5552 21.7917 12.1425H21.7963ZM0.498047 12.1425C0.498047 9.12989 1.73607 6.24067 3.93976 4.11044C6.14345 1.9802 9.1323 0.783447 12.2488 0.783447C15.3653 0.783447 18.3541 1.9802 20.5578 4.11044C22.7615 6.24067 23.9995 9.12989 23.9995 12.1425C23.9995 15.1551 22.7615 18.0443 20.5578 20.1746C18.3541 22.3048 15.3653 23.5015 12.2488 23.5015C9.1323 23.5015 6.14345 22.3048 3.93976 20.1746C1.73607 18.0443 0.498047 15.1551 0.498047 12.1425Z" fill="#747474"/>
</svg>
