<svg width="24" height="24" viewBox="0 0 24 24" fill="none" xmlns="http://www.w3.org/2000/svg">
<g clip-path="url(#clip0_481_7)">
<path d="M19.9262 23.5H19.926C19.7512 23.5 19.5175 23.4203 19.2642 23.2039L19.263 23.2029L13.0341 17.9142C13.0338 17.914 13.0335 17.9138 13.0332 17.9135C12.7377 17.6615 12.3414 17.5359 11.9531 17.5359C11.5644 17.5359 11.1687 17.6618 10.8729 17.9142L19.9262 23.5ZM19.9262 23.5C20.1073 23.5001 20.2723 23.415 20.3758 23.2666C20.4794 23.1178 20.5547 22.9108 20.5547 22.6367V2.0373C20.5547 1.23283 19.8071 0.5 18.9248 0.5H4.99972C4.14106 0.5 3.44532 1.20981 3.44532 2.0373V22.6368C3.44532 23.0135 3.55047 23.2252 3.65104 23.3365C3.75099 23.4472 3.88231 23.5001 4.02442 23.5001C4.19026 23.5001 4.40017 23.4275 4.66321 23.203L4.66364 23.2026L10.8724 17.9146L19.9262 23.5Z" stroke="#93989B"/>
</g>
<defs>
<clipPath id="clip0_481_7">
<rect width="24" height="24" fill="white" transform="matrix(-1 0 0 1 24 0)"/>
</clipPath>
</defs>
</svg>
