<svg width="24" height="24" viewBox="0 0 24 24" fill="none" xmlns="http://www.w3.org/2000/svg">
<path d="M22.9995 19C22.9995 19.2653 22.8942 19.5196 22.7066 19.7072C22.5191 19.8947 22.2647 20 21.9995 20H9.99951C9.73429 20 9.47994 19.8947 9.29241 19.7072C9.10487 19.5196 8.99951 19.2653 8.99951 19C8.99951 17.4088 9.63165 15.8826 10.7569 14.7574C11.8821 13.6322 13.4082 13 14.9995 13H16.9995C18.5908 13 20.1169 13.6322 21.2422 14.7574C22.3674 15.8826 22.9995 17.4088 22.9995 19ZM15.9995 4.00005C15.2084 4.00005 14.435 4.23465 13.7772 4.67417C13.1194 5.1137 12.6067 5.73841 12.304 6.46932C12.0012 7.20022 11.922 8.00449 12.0764 8.78041C12.2307 9.55633 12.6117 10.2691 13.1711 10.8285C13.7305 11.3879 14.4432 11.7689 15.2192 11.9232C15.9951 12.0775 16.7993 11.9983 17.5302 11.6956C18.2611 11.3928 18.8859 10.8801 19.3254 10.2223C19.7649 9.56453 19.9995 8.79117 19.9995 8.00005C19.9995 6.93918 19.5781 5.92177 18.8279 5.17162C18.0778 4.42148 17.0604 4.00005 15.9995 4.00005ZM6.99951 4.00005C6.20839 4.00005 5.43503 4.23465 4.77723 4.67417C4.11943 5.1137 3.60674 5.73841 3.30399 6.46932C3.00124 7.20022 2.92203 8.00449 3.07637 8.78041C3.23071 9.55633 3.61167 10.2691 4.17108 10.8285C4.73049 11.3879 5.44323 11.7689 6.21915 11.9232C6.99507 12.0775 7.79934 11.9983 8.53025 11.6956C9.26115 11.3928 9.88586 10.8801 10.3254 10.2223C10.7649 9.56453 10.9995 8.79117 10.9995 8.00005C10.9995 6.93918 10.5781 5.92177 9.82794 5.17162C9.07779 4.42148 8.06038 4.00005 6.99951 4.00005ZM6.99951 19C6.99802 17.9497 7.20497 16.9094 7.60836 15.9396C8.01174 14.9697 8.60355 14.0896 9.34951 13.35C8.73905 13.1196 8.09204 13.001 7.43951 13H6.55951C5.08572 13.0027 3.67305 13.5893 2.63092 14.6315C1.58879 15.6736 1.00216 17.0863 0.999512 18.56V19C0.999512 19.2653 1.10487 19.5196 1.2924 19.7072C1.47994 19.8947 1.7343 20 1.99951 20H7.17951C7.06309 19.6794 7.00222 19.3412 6.99951 19Z" fill="black"/>
<path d="M22.9995 19C22.9995 19.2653 22.8942 19.5196 22.7066 19.7072C22.5191 19.8947 22.2647 20 21.9995 20H9.99951C9.73429 20 9.47994 19.8947 9.29241 19.7072C9.10487 19.5196 8.99951 19.2653 8.99951 19C8.99951 17.4088 9.63165 15.8826 10.7569 14.7574C11.8821 13.6322 13.4082 13 14.9995 13H16.9995C18.5908 13 20.1169 13.6322 21.2422 14.7574C22.3674 15.8826 22.9995 17.4088 22.9995 19ZM15.9995 4.00005C15.2084 4.00005 14.435 4.23465 13.7772 4.67417C13.1194 5.1137 12.6067 5.73841 12.304 6.46932C12.0012 7.20022 11.922 8.00449 12.0764 8.78041C12.2307 9.55633 12.6117 10.2691 13.1711 10.8285C13.7305 11.3879 14.4432 11.7689 15.2192 11.9232C15.9951 12.0775 16.7993 11.9983 17.5302 11.6956C18.2611 11.3928 18.8859 10.8801 19.3254 10.2223C19.7649 9.56453 19.9995 8.79117 19.9995 8.00005C19.9995 6.93918 19.5781 5.92177 18.8279 5.17162C18.0778 4.42148 17.0604 4.00005 15.9995 4.00005ZM6.99951 4.00005C6.20839 4.00005 5.43503 4.23465 4.77723 4.67417C4.11943 5.1137 3.60674 5.73841 3.30399 6.46932C3.00124 7.20022 2.92203 8.00449 3.07637 8.78041C3.23071 9.55633 3.61167 10.2691 4.17108 10.8285C4.73049 11.3879 5.44323 11.7689 6.21915 11.9232C6.99507 12.0775 7.79934 11.9983 8.53025 11.6956C9.26115 11.3928 9.88586 10.8801 10.3254 10.2223C10.7649 9.56453 10.9995 8.79117 10.9995 8.00005C10.9995 6.93918 10.5781 5.92177 9.82794 5.17162C9.07779 4.42148 8.06038 4.00005 6.99951 4.00005ZM6.99951 19C6.99802 17.9497 7.20497 16.9094 7.60836 15.9396C8.01174 14.9697 8.60355 14.0896 9.34951 13.35C8.73905 13.1196 8.09204 13.001 7.43951 13H6.55951C5.08572 13.0027 3.67305 13.5893 2.63092 14.6315C1.58879 15.6736 1.00216 17.0863 0.999512 18.56V19C0.999512 19.2653 1.10487 19.5196 1.2924 19.7072C1.47994 19.8947 1.7343 20 1.99951 20H7.17951C7.06309 19.6794 7.00222 19.3412 6.99951 19Z" fill="url(#paint0_linear_0_668)"/>
<path d="M22.9995 19C22.9995 19.2653 22.8942 19.5196 22.7066 19.7072C22.5191 19.8947 22.2647 20 21.9995 20H9.99951C9.73429 20 9.47994 19.8947 9.29241 19.7072C9.10487 19.5196 8.99951 19.2653 8.99951 19C8.99951 17.4088 9.63165 15.8826 10.7569 14.7574C11.8821 13.6322 13.4082 13 14.9995 13H16.9995C18.5908 13 20.1169 13.6322 21.2422 14.7574C22.3674 15.8826 22.9995 17.4088 22.9995 19ZM15.9995 4.00005C15.2084 4.00005 14.435 4.23465 13.7772 4.67417C13.1194 5.1137 12.6067 5.73841 12.304 6.46932C12.0012 7.20022 11.922 8.00449 12.0764 8.78041C12.2307 9.55633 12.6117 10.2691 13.1711 10.8285C13.7305 11.3879 14.4432 11.7689 15.2192 11.9232C15.9951 12.0775 16.7993 11.9983 17.5302 11.6956C18.2611 11.3928 18.8859 10.8801 19.3254 10.2223C19.7649 9.56453 19.9995 8.79117 19.9995 8.00005C19.9995 6.93918 19.5781 5.92177 18.8279 5.17162C18.0778 4.42148 17.0604 4.00005 15.9995 4.00005ZM6.99951 4.00005C6.20839 4.00005 5.43503 4.23465 4.77723 4.67417C4.11943 5.1137 3.60674 5.73841 3.30399 6.46932C3.00124 7.20022 2.92203 8.00449 3.07637 8.78041C3.23071 9.55633 3.61167 10.2691 4.17108 10.8285C4.73049 11.3879 5.44323 11.7689 6.21915 11.9232C6.99507 12.0775 7.79934 11.9983 8.53025 11.6956C9.26115 11.3928 9.88586 10.8801 10.3254 10.2223C10.7649 9.56453 10.9995 8.79117 10.9995 8.00005C10.9995 6.93918 10.5781 5.92177 9.82794 5.17162C9.07779 4.42148 8.06038 4.00005 6.99951 4.00005ZM6.99951 19C6.99802 17.9497 7.20497 16.9094 7.60836 15.9396C8.01174 14.9697 8.60355 14.0896 9.34951 13.35C8.73905 13.1196 8.09204 13.001 7.43951 13H6.55951C5.08572 13.0027 3.67305 13.5893 2.63092 14.6315C1.58879 15.6736 1.00216 17.0863 0.999512 18.56V19C0.999512 19.2653 1.10487 19.5196 1.2924 19.7072C1.47994 19.8947 1.7343 20 1.99951 20H7.17951C7.06309 19.6794 7.00222 19.3412 6.99951 19Z" fill="url(#paint1_linear_0_668)"/>
<defs>
<linearGradient id="paint0_linear_0_668" x1="13.778" y1="24.3077" x2="22.0772" y2="7.94136" gradientUnits="userSpaceOnUse">
<stop stop-color="#532C85"/>
<stop offset="1" stop-color="#BE2475"/>
</linearGradient>
<linearGradient id="paint1_linear_0_668" x1="11.9995" y1="-1.99995" x2="11.9995" y2="20" gradientUnits="userSpaceOnUse">
<stop stop-color="#992B4C"/>
<stop offset="1" stop-color="#EB8A20"/>
</linearGradient>
</defs>
</svg>
