<svg width="20" height="20" viewBox="0 0 20 20" fill="none" xmlns="http://www.w3.org/2000/svg">
<g clip-path="url(#clip0_0_1104)">
<path d="M5.20833 16.2499C3.87416 16.2499 2.6875 15.3957 2.25666 14.1241L2.2275 14.0282C2.12583 13.6916 2.08333 13.4082 2.08333 13.1249V7.44324L0.0616644 14.1916C-0.198336 15.1841 0.394164 16.2132 1.38833 16.4874L14.2742 19.9382C14.435 19.9799 14.5958 19.9999 14.7542 19.9999C15.5842 19.9999 16.3425 19.4491 16.555 18.6374L17.3058 16.2499H5.20833Z" fill="#901D56"/>
<path d="M7.49992 7.49996C8.41909 7.49996 9.16659 6.75246 9.16659 5.83329C9.16659 4.91413 8.41909 4.16663 7.49992 4.16663C6.58075 4.16663 5.83325 4.91413 5.83325 5.83329C5.83325 6.75246 6.58075 7.49996 7.49992 7.49996Z" fill="#901D56"/>
<path d="M17.9166 1.66663H5.41659C4.26825 1.66663 3.33325 2.60163 3.33325 3.74996V12.9166C3.33325 14.065 4.26825 15 5.41659 15H17.9166C19.0649 15 19.9999 14.065 19.9999 12.9166V3.74996C19.9999 2.60163 19.0649 1.66663 17.9166 1.66663ZM5.41659 3.33329H17.9166C18.1466 3.33329 18.3333 3.51996 18.3333 3.74996V9.66579L15.7008 6.59413C15.4216 6.26663 15.0174 6.09163 14.5833 6.08163C14.1516 6.08413 13.7466 6.27579 13.4699 6.60746L10.3749 10.3225L9.36659 9.31663C8.79659 8.74663 7.86909 8.74663 7.29992 9.31663L4.99992 11.6158V3.74996C4.99992 3.51996 5.18659 3.33329 5.41659 3.33329Z" fill="#901D56"/>
</g>
<defs>
<clipPath id="clip0_0_1104">
<rect width="20" height="20" fill="white"/>
</clipPath>
</defs>
</svg>
