<svg width="21" height="21" viewBox="0 0 21 21" fill="none" xmlns="http://www.w3.org/2000/svg">
<mask id="mask0_85_1183" style="mask-type:luminance" maskUnits="userSpaceOnUse" x="0" y="0" width="21" height="21">
<path d="M0 7.62939e-06H21V21H0V7.62939e-06Z" fill="white"/>
</mask>
<g mask="url(#mask0_85_1183)">
<path d="M4.16574 1.53138L4.16535 1.53178C4.05932 1.63778 3.99951 1.7819 3.99951 1.9332V19.4839C3.99951 19.5687 4.06714 19.6348 4.14903 19.6348H4.15235C4.21879 19.6348 4.28159 19.6088 4.32942 19.5608L4.32941 19.5608L4.3306 19.5597C4.61294 19.2775 5.07374 18.8169 5.60401 18.2868C6.71221 17.1789 8.12382 15.7677 8.84411 15.0488C9.28222 14.6089 9.87874 14.3629 10.4984 14.3629C11.1179 14.3629 11.7145 14.6089 12.1526 15.0489C13.2205 16.1148 15.8075 18.7011 16.6721 19.567C16.7175 19.6119 16.7748 19.6348 16.8345 19.6348C16.9249 19.6348 16.9972 19.5618 16.9972 19.4727V1.9332C16.9972 1.7819 16.9374 1.63775 16.8313 1.53173L16.831 1.53143C16.7251 1.42532 16.5802 1.36524 16.4292 1.36524H4.56751C4.41651 1.36524 4.27165 1.42533 4.16574 1.53138Z" stroke="#535353" stroke-width="1.5" stroke-miterlimit="10" stroke-linecap="round" stroke-linejoin="round"/>
</g>
</svg>
