<svg width="20" height="20" viewBox="0 0 20 20" fill="none" xmlns="http://www.w3.org/2000/svg">
<g clip-path="url(#clip0_0_670)">
<path d="M16.6401 19.6H3.4401C1.7601 19.6 0.480099 18.24 0.480099 16.64V9.52C0.480099 9.04 0.800098 8.72 1.2801 8.72H4.8001V1.2C4.8001 0.800002 5.2001 0.400002 5.6001 0.400002H18.8001C19.2801 0.400002 19.6001 0.800002 19.6001 1.2V16.64C19.6001 17.44 19.2801 18.24 18.7201 18.8C18.1601 19.36 17.4401 19.6 16.6401 19.6ZM4.8001 10.32H2.0001V16.64C2.0001 17.44 2.6401 18 3.3601 18C4.0801 18 4.7201 17.36 4.7201 16.64V10.32H4.8001ZM15.8401 3.6H8.8801C8.4001 3.6 8.0801 4 8.0801 4.4C8.0801 4.8 8.4001 5.2 8.8801 5.2H15.8401C16.3201 5.2 16.6401 4.8 16.6401 4.4C16.6401 4 16.3201 3.6 15.8401 3.6ZM15.8401 7.28H8.8801C8.4001 7.28 8.0801 7.68 8.0801 8.08C8.0801 8.56 8.4001 8.88 8.8801 8.88H15.8401C16.3201 8.88 16.6401 8.56 16.6401 8.08C16.6401 7.68 16.3201 7.28 15.8401 7.28ZM15.8401 11.04H8.8801C8.4001 11.04 8.0801 11.44 8.0801 11.84C8.0801 12.24 8.4001 12.64 8.8801 12.64H15.8401C16.3201 12.64 16.6401 12.24 16.6401 11.84C16.6401 11.44 16.3201 11.04 15.8401 11.04ZM15.8401 14.8H8.8801C8.4001 14.8 8.0801 15.12 8.0801 15.6C8.0801 16 8.4001 16.4 8.8801 16.4H15.8401C16.3201 16.4 16.6401 16 16.6401 15.6C16.6401 15.2 16.3201 14.8 15.8401 14.8Z" fill="black"/>
<path d="M16.6401 19.6H3.4401C1.7601 19.6 0.480099 18.24 0.480099 16.64V9.52C0.480099 9.04 0.800098 8.72 1.2801 8.72H4.8001V1.2C4.8001 0.800002 5.2001 0.400002 5.6001 0.400002H18.8001C19.2801 0.400002 19.6001 0.800002 19.6001 1.2V16.64C19.6001 17.44 19.2801 18.24 18.7201 18.8C18.1601 19.36 17.4401 19.6 16.6401 19.6ZM4.8001 10.32H2.0001V16.64C2.0001 17.44 2.6401 18 3.3601 18C4.0801 18 4.7201 17.36 4.7201 16.64V10.32H4.8001ZM15.8401 3.6H8.8801C8.4001 3.6 8.0801 4 8.0801 4.4C8.0801 4.8 8.4001 5.2 8.8801 5.2H15.8401C16.3201 5.2 16.6401 4.8 16.6401 4.4C16.6401 4 16.3201 3.6 15.8401 3.6ZM15.8401 7.28H8.8801C8.4001 7.28 8.0801 7.68 8.0801 8.08C8.0801 8.56 8.4001 8.88 8.8801 8.88H15.8401C16.3201 8.88 16.6401 8.56 16.6401 8.08C16.6401 7.68 16.3201 7.28 15.8401 7.28ZM15.8401 11.04H8.8801C8.4001 11.04 8.0801 11.44 8.0801 11.84C8.0801 12.24 8.4001 12.64 8.8801 12.64H15.8401C16.3201 12.64 16.6401 12.24 16.6401 11.84C16.6401 11.44 16.3201 11.04 15.8401 11.04ZM15.8401 14.8H8.8801C8.4001 14.8 8.0801 15.12 8.0801 15.6C8.0801 16 8.4001 16.4 8.8801 16.4H15.8401C16.3201 16.4 16.6401 16 16.6401 15.6C16.6401 15.2 16.3201 14.8 15.8401 14.8Z" fill="url(#paint0_linear_0_670)"/>
</g>
<defs>
<linearGradient id="paint0_linear_0_670" x1="8.49447" y1="24.7692" x2="-3.10577" y2="8.2015" gradientUnits="userSpaceOnUse">
<stop stop-color="#532C85"/>
<stop offset="1" stop-color="#BE2475"/>
</linearGradient>
<clipPath id="clip0_0_670">
<rect width="20" height="20" fill="white" transform="matrix(-1 0 0 1 20 0)"/>
</clipPath>
</defs>
</svg>
