<svg width="18" height="17" viewBox="0 0 18 17" fill="none" xmlns="http://www.w3.org/2000/svg">
<g clip-path="url(#clip0_0_707)">
<path d="M4.82781 5.58315H0.959961V15.7917H4.82781V5.58315Z" fill="#911D56"/>
<path d="M17.1106 9.85003C17.1106 9.48178 16.9884 9.14157 16.7825 8.86766C17.1939 8.56967 17.4622 8.08584 17.4622 7.54031C17.4622 6.63694 16.7272 5.90199 15.8238 5.90199H12.0996L12.6179 4.11172V3.25393C12.6179 1.67331 11.3319 0.387344 9.75129 0.387344C9.36801 0.387344 9.05623 0.699157 9.05623 1.0824V2.98409C8.79776 3.39775 7.36241 5.00839 5.79419 6.69586V15.1565L7.1324 15.6583C7.92779 15.9565 8.76183 16.1078 9.61133 16.1078H14.7691C15.6724 16.1078 16.4074 15.3728 16.4074 14.4694C16.4074 14.1013 16.2854 13.7612 16.0796 13.4873C16.4909 13.1894 16.759 12.7052 16.759 12.1597C16.759 11.7915 16.6368 11.4513 16.4309 11.1773C16.8423 10.8795 17.1106 10.3956 17.1106 9.85003Z" fill="#911D56"/>
</g>
<defs>
<clipPath id="clip0_0_707">
<rect width="16.5028" height="16.5028" fill="white" transform="translate(0.959961 -0.00382996)"/>
</clipPath>
</defs>
</svg>
