<svg width="193" height="181" viewBox="0 0 193 181" fill="none" xmlns="http://www.w3.org/2000/svg">
<path d="M19.3154 13.96V34.0361C19.3154 36.3122 19.2412 37.9141 19.0928 38.8418C18.9443 39.7572 18.5052 40.7035 17.7754 41.6807C17.0456 42.6455 16.0807 43.3815 14.8809 43.8887C13.6934 44.3835 12.2894 44.6309 10.6689 44.6309C8.87533 44.6309 7.29199 44.334 5.91895 43.7402C4.5459 43.1465 3.51921 42.3734 2.83887 41.4209C2.15853 40.4684 1.75651 39.4665 1.63281 38.415C1.50911 37.3512 1.44727 35.1247 1.44727 31.7354V13.96H9.25879V36.4854C9.25879 37.7965 9.32682 38.6377 9.46289 39.0088C9.61133 39.3675 9.90202 39.5469 10.335 39.5469C10.8298 39.5469 11.1452 39.349 11.2812 38.9531C11.4297 38.5449 11.5039 37.5924 11.5039 36.0957V13.96H19.3154ZM39.7812 13.96V44H32.9346L28.8711 30.3438V44H22.3398V13.96H28.8711L33.25 27.4863V13.96H39.7812ZM42.9355 13.96H55.9609V19.9717H50.7471V25.668H55.627V31.3828H50.7471V37.9883H56.4805V44H42.9355V13.96ZM82.8467 13.96V44H76.0186V23.7197L73.291 44H68.4482L65.5723 24.1836V44H58.7441V13.96H68.8564C69.1533 15.766 69.4688 17.8936 69.8027 20.3428L70.8789 27.9873L72.6602 13.96H82.8467ZM85.9824 13.96H93.8496C95.9772 13.96 97.61 14.127 98.748 14.4609C99.8984 14.7949 100.758 15.2773 101.327 15.9082C101.909 16.5391 102.298 17.306 102.496 18.209C102.706 19.0996 102.812 20.485 102.812 22.3652V24.9814C102.812 26.8988 102.614 28.2965 102.218 29.1748C101.822 30.0531 101.092 30.7272 100.028 31.1973C98.9769 31.6673 97.5977 31.9023 95.8906 31.9023H93.7939V44H85.9824V13.96ZM93.7939 19.0996V26.7441C94.0166 26.7565 94.2083 26.7627 94.3691 26.7627C95.0866 26.7627 95.5814 26.5895 95.8535 26.2432C96.138 25.8844 96.2803 25.1484 96.2803 24.0352V21.5674C96.2803 20.5407 96.1195 19.8727 95.7979 19.5635C95.4762 19.2542 94.8083 19.0996 93.7939 19.0996ZM112.868 13.96V37.9883H117.618V44H105.057V13.96H112.868ZM136.785 31.5498C136.785 34.568 136.711 36.708 136.562 37.9697C136.426 39.2191 135.981 40.3633 135.227 41.4023C134.484 42.4414 133.476 43.2393 132.202 43.7959C130.928 44.3525 129.444 44.6309 127.749 44.6309C126.141 44.6309 124.694 44.3711 123.407 43.8516C122.133 43.3197 121.106 42.528 120.327 41.4766C119.548 40.4251 119.084 39.2809 118.936 38.0439C118.787 36.807 118.713 34.6423 118.713 31.5498V26.4102C118.713 23.3919 118.781 21.2581 118.917 20.0088C119.065 18.7471 119.511 17.5967 120.253 16.5576C121.007 15.5186 122.022 14.7207 123.296 14.1641C124.57 13.6074 126.054 13.3291 127.749 13.3291C129.357 13.3291 130.798 13.5951 132.072 14.127C133.359 14.6465 134.392 15.432 135.171 16.4834C135.95 17.5348 136.414 18.679 136.562 19.916C136.711 21.153 136.785 23.3177 136.785 26.4102V31.5498ZM128.974 21.6787C128.974 20.2809 128.893 19.3903 128.732 19.0068C128.584 18.611 128.269 18.4131 127.786 18.4131C127.378 18.4131 127.062 18.5739 126.84 18.8955C126.63 19.2048 126.524 20.1325 126.524 21.6787V35.7061C126.524 37.4502 126.592 38.5264 126.729 38.9346C126.877 39.3428 127.211 39.5469 127.73 39.5469C128.262 39.5469 128.603 39.3118 128.751 38.8418C128.899 38.3717 128.974 37.2523 128.974 35.4834V21.6787ZM156.36 13.96L150.664 33.127V44H143.428V33.127L137.936 13.96H145.116C146.242 19.8109 146.873 23.7507 147.009 25.7793C147.442 22.5755 148.165 18.6357 149.18 13.96H156.36ZM157.715 13.96H170.74V19.9717H165.526V25.668H170.406V31.3828H165.526V37.9883H171.26V44H157.715V13.96ZM173.523 13.96H179.368C183.141 13.96 185.689 14.1331 187.013 14.4795C188.349 14.8258 189.363 15.3949 190.056 16.1865C190.748 16.9782 191.181 17.8626 191.354 18.8398C191.528 19.8047 191.614 21.7096 191.614 24.5547V35.0752C191.614 37.7718 191.484 39.5778 191.225 40.4932C190.977 41.3962 190.538 42.1074 189.907 42.627C189.276 43.1341 188.497 43.4928 187.569 43.7031C186.642 43.901 185.244 44 183.376 44H173.523V13.96ZM181.335 19.0996V38.8604C182.461 38.8604 183.153 38.6377 183.413 38.1924C183.673 37.7347 183.803 36.5039 183.803 34.5V22.8291C183.803 21.4684 183.759 20.5964 183.673 20.2129C183.586 19.8294 183.388 19.5511 183.079 19.3779C182.77 19.1924 182.188 19.0996 181.335 19.0996Z" fill="#B24020"/>
<path d="M19.3154 13.96V34.0361C19.3154 36.3122 19.2412 37.9141 19.0928 38.8418C18.9443 39.7572 18.5052 40.7035 17.7754 41.6807C17.0456 42.6455 16.0807 43.3815 14.8809 43.8887C13.6934 44.3835 12.2894 44.6309 10.6689 44.6309C8.87533 44.6309 7.29199 44.334 5.91895 43.7402C4.5459 43.1465 3.51921 42.3734 2.83887 41.4209C2.15853 40.4684 1.75651 39.4665 1.63281 38.415C1.50911 37.3512 1.44727 35.1247 1.44727 31.7354V13.96H9.25879V36.4854C9.25879 37.7965 9.32682 38.6377 9.46289 39.0088C9.61133 39.3675 9.90202 39.5469 10.335 39.5469C10.8298 39.5469 11.1452 39.349 11.2812 38.9531C11.4297 38.5449 11.5039 37.5924 11.5039 36.0957V13.96H19.3154ZM39.7812 13.96V44H32.9346L28.8711 30.3438V44H22.3398V13.96H28.8711L33.25 27.4863V13.96H39.7812ZM42.9355 13.96H55.9609V19.9717H50.7471V25.668H55.627V31.3828H50.7471V37.9883H56.4805V44H42.9355V13.96ZM82.8467 13.96V44H76.0186V23.7197L73.291 44H68.4482L65.5723 24.1836V44H58.7441V13.96H68.8564C69.1533 15.766 69.4688 17.8936 69.8027 20.3428L70.8789 27.9873L72.6602 13.96H82.8467ZM85.9824 13.96H93.8496C95.9772 13.96 97.61 14.127 98.748 14.4609C99.8984 14.7949 100.758 15.2773 101.327 15.9082C101.909 16.5391 102.298 17.306 102.496 18.209C102.706 19.0996 102.812 20.485 102.812 22.3652V24.9814C102.812 26.8988 102.614 28.2965 102.218 29.1748C101.822 30.0531 101.092 30.7272 100.028 31.1973C98.9769 31.6673 97.5977 31.9023 95.8906 31.9023H93.7939V44H85.9824V13.96ZM93.7939 19.0996V26.7441C94.0166 26.7565 94.2083 26.7627 94.3691 26.7627C95.0866 26.7627 95.5814 26.5895 95.8535 26.2432C96.138 25.8844 96.2803 25.1484 96.2803 24.0352V21.5674C96.2803 20.5407 96.1195 19.8727 95.7979 19.5635C95.4762 19.2542 94.8083 19.0996 93.7939 19.0996ZM112.868 13.96V37.9883H117.618V44H105.057V13.96H112.868ZM136.785 31.5498C136.785 34.568 136.711 36.708 136.562 37.9697C136.426 39.2191 135.981 40.3633 135.227 41.4023C134.484 42.4414 133.476 43.2393 132.202 43.7959C130.928 44.3525 129.444 44.6309 127.749 44.6309C126.141 44.6309 124.694 44.3711 123.407 43.8516C122.133 43.3197 121.106 42.528 120.327 41.4766C119.548 40.4251 119.084 39.2809 118.936 38.0439C118.787 36.807 118.713 34.6423 118.713 31.5498V26.4102C118.713 23.3919 118.781 21.2581 118.917 20.0088C119.065 18.7471 119.511 17.5967 120.253 16.5576C121.007 15.5186 122.022 14.7207 123.296 14.1641C124.57 13.6074 126.054 13.3291 127.749 13.3291C129.357 13.3291 130.798 13.5951 132.072 14.127C133.359 14.6465 134.392 15.432 135.171 16.4834C135.95 17.5348 136.414 18.679 136.562 19.916C136.711 21.153 136.785 23.3177 136.785 26.4102V31.5498ZM128.974 21.6787C128.974 20.2809 128.893 19.3903 128.732 19.0068C128.584 18.611 128.269 18.4131 127.786 18.4131C127.378 18.4131 127.062 18.5739 126.84 18.8955C126.63 19.2048 126.524 20.1325 126.524 21.6787V35.7061C126.524 37.4502 126.592 38.5264 126.729 38.9346C126.877 39.3428 127.211 39.5469 127.73 39.5469C128.262 39.5469 128.603 39.3118 128.751 38.8418C128.899 38.3717 128.974 37.2523 128.974 35.4834V21.6787ZM156.36 13.96L150.664 33.127V44H143.428V33.127L137.936 13.96H145.116C146.242 19.8109 146.873 23.7507 147.009 25.7793C147.442 22.5755 148.165 18.6357 149.18 13.96H156.36ZM157.715 13.96H170.74V19.9717H165.526V25.668H170.406V31.3828H165.526V37.9883H171.26V44H157.715V13.96ZM173.523 13.96H179.368C183.141 13.96 185.689 14.1331 187.013 14.4795C188.349 14.8258 189.363 15.3949 190.056 16.1865C190.748 16.9782 191.181 17.8626 191.354 18.8398C191.528 19.8047 191.614 21.7096 191.614 24.5547V35.0752C191.614 37.7718 191.484 39.5778 191.225 40.4932C190.977 41.3962 190.538 42.1074 189.907 42.627C189.276 43.1341 188.497 43.4928 187.569 43.7031C186.642 43.901 185.244 44 183.376 44H173.523V13.96ZM181.335 19.0996V38.8604C182.461 38.8604 183.153 38.6377 183.413 38.1924C183.673 37.7347 183.803 36.5039 183.803 34.5V22.8291C183.803 21.4684 183.759 20.5964 183.673 20.2129C183.586 19.8294 183.388 19.5511 183.079 19.3779C182.77 19.1924 182.188 19.0996 181.335 19.0996Z" fill="url(#paint0_linear_593_20)"/>
<path d="M14.1341 63.272C14.1341 64.1307 13.9981 64.92 13.7261 65.64C13.4541 66.3547 13.0701 66.9707 12.5741 67.488C12.0781 68.0053 11.4808 68.408 10.7821 68.696C10.0888 68.9787 9.32079 69.12 8.47813 69.12C7.63546 69.12 6.86746 68.9787 6.17413 68.696C5.48079 68.408 4.88613 68.0053 4.39013 67.488C3.89413 66.9707 3.51013 66.3547 3.23813 65.64C2.96613 64.92 2.83013 64.1307 2.83013 63.272C2.83013 62.4133 2.96613 61.6267 3.23813 60.912C3.51013 60.192 3.89413 59.5733 4.39013 59.056C4.88613 58.5333 5.48079 58.128 6.17413 57.84C6.86746 57.552 7.63546 57.408 8.47813 57.408C9.32079 57.408 10.0888 57.552 10.7821 57.84C11.4808 58.128 12.0781 58.5333 12.5741 59.056C13.0701 59.5733 13.4541 60.192 13.7261 60.912C13.9981 61.6267 14.1341 62.4133 14.1341 63.272ZM12.5421 63.272C12.5421 62.568 12.4461 61.936 12.2541 61.376C12.0621 60.816 11.7901 60.344 11.4381 59.96C11.0861 59.5707 10.6595 59.272 10.1581 59.064C9.65679 58.856 9.09679 58.752 8.47813 58.752C7.86479 58.752 7.30746 58.856 6.80613 59.064C6.30479 59.272 5.87546 59.5707 5.51813 59.96C5.16613 60.344 4.89413 60.816 4.70213 61.376C4.51013 61.936 4.41413 62.568 4.41413 63.272C4.41413 63.976 4.51013 64.608 4.70213 65.168C4.89413 65.7227 5.16613 66.1947 5.51813 66.584C5.87546 66.968 6.30479 67.264 6.80613 67.472C7.30746 67.6747 7.86479 67.776 8.47813 67.776C9.09679 67.776 9.65679 67.6747 10.1581 67.472C10.6595 67.264 11.0861 66.968 11.4381 66.584C11.7901 66.1947 12.0621 65.7227 12.2541 65.168C12.4461 64.608 12.5421 63.976 12.5421 63.272ZM19.5306 63.088C19.9786 63.088 20.3733 63.0347 20.7146 62.928C21.0613 62.816 21.3493 62.6613 21.5786 62.464C21.8133 62.2613 21.9893 62.0213 22.1066 61.744C22.224 61.4667 22.2826 61.16 22.2826 60.824C22.2826 60.1413 22.0586 59.6267 21.6106 59.28C21.1626 58.9333 20.4906 58.76 19.5946 58.76H17.8986V63.088H19.5306ZM24.8266 69H23.4506C23.168 69 22.96 68.8907 22.8266 68.672L19.8506 64.576C19.76 64.448 19.6613 64.3573 19.5546 64.304C19.4533 64.2453 19.2933 64.216 19.0746 64.216H17.8986V69H16.3546V57.536H19.5946C20.32 57.536 20.9466 57.6107 21.4746 57.76C22.0026 57.904 22.4373 58.1147 22.7786 58.392C23.1253 58.6693 23.3813 59.0053 23.5466 59.4C23.712 59.7893 23.7946 60.2267 23.7946 60.712C23.7946 61.1173 23.7306 61.496 23.6026 61.848C23.4746 62.2 23.288 62.5173 23.0426 62.8C22.8026 63.0773 22.5066 63.3147 22.1546 63.512C21.808 63.7093 21.4133 63.8587 20.9706 63.96C21.168 64.072 21.3386 64.2347 21.4826 64.448L24.8266 69Z" fill="#101010"/>
<path d="M53.672 119.435C55.4213 119.435 57.0107 119.696 58.44 120.219C59.8587 120.741 61.0747 121.477 62.088 122.427C63.0907 123.376 63.8693 124.517 64.424 125.851C64.968 127.173 65.24 128.635 65.24 130.235C65.24 131.835 64.968 133.296 64.424 134.619C63.8693 135.941 63.0907 137.077 62.088 138.027C61.0747 138.976 59.8587 139.712 58.44 140.235C57.0107 140.757 55.4213 141.019 53.672 141.019C51.9333 141.019 50.3547 140.757 48.936 140.235C47.5067 139.712 46.2907 138.976 45.288 138.027C44.2747 137.077 43.4907 135.941 42.936 134.619C42.3813 133.296 42.104 131.835 42.104 130.235C42.104 128.635 42.3813 127.173 42.936 125.851C43.48 124.517 44.2587 123.376 45.272 122.427C46.2853 121.477 47.5067 120.741 48.936 120.219C50.3547 119.696 51.9333 119.435 53.672 119.435ZM53.672 121.131C52.0933 121.131 50.6747 121.349 49.416 121.787C48.1573 122.224 47.0907 122.843 46.216 123.643C45.3413 124.443 44.6747 125.403 44.216 126.523C43.7467 127.643 43.512 128.88 43.512 130.235C43.512 131.579 43.7467 132.811 44.216 133.931C44.6747 135.051 45.3413 136.016 46.216 136.827C47.0907 137.627 48.1573 138.251 49.416 138.699C50.6747 139.136 52.0933 139.355 53.672 139.355C55.2613 139.355 56.6853 139.136 57.944 138.699C59.192 138.251 60.2533 137.627 61.128 136.827C62.0027 136.016 62.6693 135.051 63.128 133.931C63.5867 132.811 63.816 131.579 63.816 130.235C63.816 128.88 63.5867 127.643 63.128 126.523C62.6693 125.403 62.0027 124.443 61.128 123.643C60.2533 122.843 59.192 122.224 57.944 121.787C56.6853 121.349 55.2613 121.131 53.672 121.131ZM42.36 97.5181L65 106.862L65 108.318L42.36 117.662L42.36 116.366C42.36 116.217 42.4027 116.094 42.488 115.998C42.5627 115.902 42.664 115.827 42.792 115.774L61.576 108.062C61.8107 107.977 62.0613 107.891 62.328 107.806C62.5947 107.721 62.8667 107.641 63.144 107.566C62.8667 107.502 62.5947 107.433 62.328 107.358C62.0613 107.283 61.8107 107.198 61.576 107.102L42.792 99.4061C42.6747 99.3635 42.5733 99.2888 42.488 99.1821C42.4027 99.0755 42.36 98.9475 42.36 98.7981L42.36 97.5181ZM63.64 80.1654L65 80.1974L65 93.7654L42.36 93.7654L42.36 80.1974L43.72 80.1974L43.72 92.1174L52.872 92.1174L52.872 82.1974L54.2 82.1974L54.2 92.1174L63.64 92.1174L63.64 80.1654ZM53.544 69.6349C53.544 68.6322 53.4267 67.7362 53.192 66.9469C52.9467 66.1469 52.6 65.4749 52.152 64.9309C51.704 64.3762 51.1653 63.9549 50.536 63.6669C49.9067 63.3789 49.1973 63.2349 48.408 63.2349C46.7973 63.2349 45.6027 63.7629 44.824 64.8189C44.0453 65.8642 43.656 67.3949 43.656 69.4109L43.656 73.5549L53.544 73.5549L53.544 69.6349ZM65 59.5869L65 60.9949C65 61.1762 64.9733 61.3309 64.92 61.4589C64.856 61.5762 64.744 61.6882 64.584 61.7949L55.4 69.0589C55.2827 69.1442 55.1813 69.2349 55.096 69.3309C55.0107 69.4162 54.9467 69.5175 54.904 69.6349C54.8507 69.7415 54.8133 69.8749 54.792 70.0349C54.7707 70.1842 54.76 70.3709 54.76 70.5949L54.76 73.5549L65 73.5549L65 75.2029L42.36 75.2029L42.36 69.4109C42.36 66.8082 42.8667 64.8615 43.88 63.5709C44.8827 62.2695 46.36 61.6189 48.312 61.6189C49.176 61.6189 49.9653 61.7682 50.68 62.0669C51.3947 62.3655 52.024 62.7975 52.568 63.3629C53.1013 63.9175 53.5387 64.5949 53.88 65.3949C54.2213 66.1842 54.4507 67.0749 54.568 68.0669C54.728 67.8109 54.9413 67.5815 55.208 67.3789L65 59.5869Z" fill="#101010"/>
<path d="M125.125 57.042V113.868H131.302V128.692H125.125V144H103.426V128.692H77.6445V113.868L96.3896 57.042H125.125ZM103.426 113.868V76.8613L93.8652 113.868H103.426ZM183.24 57.042V70.9531H156.331V85.7236C159.697 81.749 164.03 79.7617 169.329 79.7617C175.309 79.7617 179.821 81.4447 182.864 84.8105C185.944 88.1406 187.483 94.568 187.483 104.093V116.5C187.483 122.659 187.179 127.188 186.57 130.089C185.997 132.953 184.744 135.621 182.811 138.092C180.877 140.527 178.174 142.407 174.7 143.731C171.263 145.021 167.055 145.665 162.078 145.665C156.492 145.665 151.569 144.698 147.308 142.765C143.047 140.795 140.021 137.877 138.23 134.01C136.44 130.143 135.545 124.163 135.545 116.07V111.344H157.244V116.769C157.244 122.39 157.441 126.383 157.835 128.746C158.229 131.109 159.59 132.291 161.917 132.291C162.991 132.291 163.851 131.951 164.495 131.271C165.175 130.59 165.534 129.856 165.569 129.068C165.641 128.281 165.713 124.861 165.784 118.81V101.568C165.784 98.3099 165.444 96.0898 164.764 94.9082C164.083 93.7266 162.955 93.1357 161.38 93.1357C160.377 93.1357 159.536 93.4401 158.855 94.0488C158.175 94.6576 157.728 95.32 157.513 96.0361C157.334 96.7165 157.244 98.3278 157.244 100.87H135.76L136.673 57.042H183.24Z" fill="#B24020"/>
<path d="M125.125 57.042V113.868H131.302V128.692H125.125V144H103.426V128.692H77.6445V113.868L96.3896 57.042H125.125ZM103.426 113.868V76.8613L93.8652 113.868H103.426ZM183.24 57.042V70.9531H156.331V85.7236C159.697 81.749 164.03 79.7617 169.329 79.7617C175.309 79.7617 179.821 81.4447 182.864 84.8105C185.944 88.1406 187.483 94.568 187.483 104.093V116.5C187.483 122.659 187.179 127.188 186.57 130.089C185.997 132.953 184.744 135.621 182.811 138.092C180.877 140.527 178.174 142.407 174.7 143.731C171.263 145.021 167.055 145.665 162.078 145.665C156.492 145.665 151.569 144.698 147.308 142.765C143.047 140.795 140.021 137.877 138.23 134.01C136.44 130.143 135.545 124.163 135.545 116.07V111.344H157.244V116.769C157.244 122.39 157.441 126.383 157.835 128.746C158.229 131.109 159.59 132.291 161.917 132.291C162.991 132.291 163.851 131.951 164.495 131.271C165.175 130.59 165.534 129.856 165.569 129.068C165.641 128.281 165.713 124.861 165.784 118.81V101.568C165.784 98.3099 165.444 96.0898 164.764 94.9082C164.083 93.7266 162.955 93.1357 161.38 93.1357C160.377 93.1357 159.536 93.4401 158.855 94.0488C158.175 94.6576 157.728 95.32 157.513 96.0361C157.334 96.7165 157.244 98.3278 157.244 100.87H135.76L136.673 57.042H183.24Z" fill="url(#paint1_linear_593_20)"/>
<rect x="3" y="75" width="25" height="69" fill="url(#paint2_linear_593_20)"/>
<path d="M11.064 169.11H7.816V178H6.465V169.11H3.21V167.969H11.064V169.11ZM13.3884 171.854C13.6918 171.532 14.0278 171.275 14.3964 171.084C14.7651 170.893 15.1898 170.797 15.6704 170.797C16.0578 170.797 16.3984 170.862 16.6924 170.993C16.9911 171.119 17.2384 171.301 17.4344 171.539C17.6351 171.772 17.7868 172.055 17.8894 172.386C17.9921 172.717 18.0434 173.084 18.0434 173.485V178H16.7904V173.485C16.7904 172.948 16.6668 172.533 16.4194 172.239C16.1768 171.94 15.8058 171.791 15.3064 171.791C14.9378 171.791 14.5924 171.88 14.2704 172.057C13.9531 172.234 13.6591 172.475 13.3884 172.778V178H12.1354V167.689H13.3884V171.854ZM21.2581 170.909V178H20.0121V170.909H21.2581ZM21.5241 168.683C21.5241 168.804 21.4984 168.919 21.4471 169.026C21.4004 169.129 21.3351 169.222 21.2511 169.306C21.1717 169.385 21.0761 169.448 20.9641 169.495C20.8567 169.542 20.7424 169.565 20.6211 169.565C20.4997 169.565 20.3854 169.542 20.2781 169.495C20.1754 169.448 20.0844 169.385 20.0051 169.306C19.9257 169.222 19.8627 169.129 19.8161 169.026C19.7694 168.919 19.7461 168.804 19.7461 168.683C19.7461 168.562 19.7694 168.447 19.8161 168.34C19.8627 168.228 19.9257 168.132 20.0051 168.053C20.0844 167.969 20.1754 167.904 20.2781 167.857C20.3854 167.81 20.4997 167.787 20.6211 167.787C20.7424 167.787 20.8567 167.81 20.9641 167.857C21.0761 167.904 21.1717 167.969 21.2511 168.053C21.3351 168.132 21.4004 168.228 21.4471 168.34C21.4984 168.447 21.5241 168.562 21.5241 168.683ZM27.4354 172.078C27.3794 172.181 27.293 172.232 27.1764 172.232C27.1064 172.232 27.027 172.206 26.9384 172.155C26.8497 172.104 26.74 172.048 26.6094 171.987C26.4834 171.922 26.3317 171.863 26.1544 171.812C25.977 171.756 25.767 171.728 25.5244 171.728C25.3144 171.728 25.1254 171.756 24.9574 171.812C24.7894 171.863 24.6447 171.936 24.5234 172.029C24.4067 172.122 24.3157 172.232 24.2504 172.358C24.1897 172.479 24.1594 172.612 24.1594 172.757C24.1594 172.939 24.2107 173.091 24.3134 173.212C24.4207 173.333 24.5607 173.438 24.7334 173.527C24.906 173.616 25.102 173.695 25.3214 173.765C25.5407 173.83 25.7647 173.903 25.9934 173.982C26.2267 174.057 26.453 174.141 26.6724 174.234C26.8917 174.327 27.0877 174.444 27.2604 174.584C27.433 174.724 27.5707 174.897 27.6734 175.102C27.7807 175.303 27.8344 175.545 27.8344 175.83C27.8344 176.157 27.776 176.46 27.6594 176.74C27.5427 177.015 27.37 177.256 27.1414 177.461C26.9127 177.662 26.6327 177.82 26.3014 177.937C25.97 178.054 25.5874 178.112 25.1534 178.112C24.6587 178.112 24.2107 178.033 23.8094 177.874C23.408 177.711 23.0674 177.503 22.7874 177.251L23.0814 176.775C23.1187 176.714 23.163 176.668 23.2144 176.635C23.2657 176.602 23.331 176.586 23.4104 176.586C23.4944 176.586 23.583 176.619 23.6764 176.684C23.7697 176.749 23.8817 176.822 24.0124 176.901C24.1477 176.98 24.311 177.053 24.5024 177.118C24.6937 177.183 24.9317 177.216 25.2164 177.216C25.459 177.216 25.6714 177.186 25.8534 177.125C26.0354 177.06 26.187 176.973 26.3084 176.866C26.4297 176.759 26.5184 176.635 26.5744 176.495C26.635 176.355 26.6654 176.206 26.6654 176.047C26.6654 175.851 26.6117 175.69 26.5044 175.564C26.4017 175.433 26.264 175.324 26.0914 175.235C25.9187 175.142 25.7204 175.062 25.4964 174.997C25.277 174.927 25.0507 174.855 24.8174 174.78C24.5887 174.705 24.3624 174.621 24.1384 174.528C23.919 174.43 23.723 174.309 23.5504 174.164C23.3777 174.019 23.2377 173.842 23.1304 173.632C23.0277 173.417 22.9764 173.158 22.9764 172.855C22.9764 172.584 23.0324 172.325 23.1444 172.078C23.2564 171.826 23.4197 171.607 23.6344 171.42C23.849 171.229 24.1127 171.077 24.4254 170.965C24.738 170.853 25.095 170.797 25.4964 170.797C25.963 170.797 26.3807 170.872 26.7494 171.021C27.1227 171.166 27.4447 171.366 27.7154 171.623L27.4354 172.078ZM37.879 172.169C37.8417 172.22 37.8044 172.26 37.767 172.288C37.7297 172.316 37.6784 172.33 37.613 172.33C37.543 172.33 37.466 172.302 37.382 172.246C37.298 172.185 37.193 172.12 37.067 172.05C36.9457 171.98 36.794 171.917 36.612 171.861C36.4347 171.8 36.2154 171.77 35.954 171.77C35.604 171.77 35.296 171.833 35.03 171.959C34.764 172.08 34.54 172.258 34.358 172.491C34.1807 172.724 34.0454 173.007 33.952 173.338C33.8634 173.669 33.819 174.04 33.819 174.451C33.819 174.88 33.868 175.263 33.966 175.599C34.064 175.93 34.2017 176.21 34.379 176.439C34.561 176.663 34.778 176.836 35.03 176.957C35.2867 177.074 35.5737 177.132 35.891 177.132C36.1944 177.132 36.444 177.097 36.64 177.027C36.836 176.952 36.997 176.871 37.123 176.782C37.2537 176.693 37.361 176.614 37.445 176.544C37.5337 176.469 37.62 176.432 37.704 176.432C37.8067 176.432 37.886 176.472 37.942 176.551L38.292 177.006C38.138 177.197 37.963 177.361 37.767 177.496C37.571 177.631 37.3587 177.746 37.13 177.839C36.906 177.928 36.6704 177.993 36.423 178.035C36.1757 178.077 35.9237 178.098 35.667 178.098C35.2237 178.098 34.8107 178.016 34.428 177.853C34.05 177.69 33.721 177.454 33.441 177.146C33.161 176.833 32.9417 176.451 32.783 175.998C32.6244 175.545 32.545 175.03 32.545 174.451C32.545 173.924 32.6174 173.436 32.762 172.988C32.9114 172.54 33.126 172.155 33.406 171.833C33.6907 171.506 34.0384 171.252 34.449 171.07C34.8644 170.888 35.3404 170.797 35.877 170.797C36.3764 170.797 36.815 170.879 37.193 171.042C37.5757 171.201 37.914 171.427 38.208 171.721L37.879 172.169ZM42.4955 170.797C43.0135 170.797 43.4802 170.883 43.8955 171.056C44.3109 171.229 44.6655 171.474 44.9595 171.791C45.2535 172.108 45.4775 172.493 45.6315 172.946C45.7902 173.394 45.8695 173.896 45.8695 174.451C45.8695 175.011 45.7902 175.515 45.6315 175.963C45.4775 176.411 45.2535 176.794 44.9595 177.111C44.6655 177.428 44.3109 177.673 43.8955 177.846C43.4802 178.014 43.0135 178.098 42.4955 178.098C41.9729 178.098 41.5015 178.014 41.0815 177.846C40.6662 177.673 40.3115 177.428 40.0175 177.111C39.7235 176.794 39.4972 176.411 39.3385 175.963C39.1845 175.515 39.1075 175.011 39.1075 174.451C39.1075 173.896 39.1845 173.394 39.3385 172.946C39.4972 172.493 39.7235 172.108 40.0175 171.791C40.3115 171.474 40.6662 171.229 41.0815 171.056C41.5015 170.883 41.9729 170.797 42.4955 170.797ZM42.4955 177.125C43.1955 177.125 43.7182 176.892 44.0635 176.425C44.4089 175.954 44.5815 175.298 44.5815 174.458C44.5815 173.613 44.4089 172.955 44.0635 172.484C43.7182 172.013 43.1955 171.777 42.4955 171.777C42.1409 171.777 41.8305 171.838 41.5645 171.959C41.3032 172.08 41.0839 172.255 40.9065 172.484C40.7339 172.713 40.6032 172.995 40.5145 173.331C40.4305 173.662 40.3885 174.038 40.3885 174.458C40.3885 175.298 40.5612 175.954 40.9065 176.425C41.2565 176.892 41.7862 177.125 42.4955 177.125ZM53.2809 170.909V178H52.5389C52.3616 178 52.2496 177.914 52.2029 177.741L52.1049 176.978C51.7969 177.319 51.4516 177.594 51.0689 177.804C50.6862 178.009 50.2476 178.112 49.7529 178.112C49.3656 178.112 49.0226 178.049 48.7239 177.923C48.4299 177.792 48.1826 177.61 47.9819 177.377C47.7812 177.144 47.6296 176.861 47.5269 176.53C47.4289 176.199 47.3799 175.832 47.3799 175.431V170.909H48.6259V175.431C48.6259 175.968 48.7472 176.383 48.9899 176.677C49.2372 176.971 49.6129 177.118 50.1169 177.118C50.4856 177.118 50.8286 177.032 51.1459 176.859C51.4679 176.682 51.7642 176.439 52.0349 176.131V170.909H53.2809ZM56.5445 167.689V178H55.2985V167.689H56.5445ZM63.1851 172.596C62.9518 172.283 62.6998 172.066 62.4291 171.945C62.1585 171.819 61.8551 171.756 61.5191 171.756C60.8611 171.756 60.3548 171.992 60.0001 172.463C59.6455 172.934 59.4681 173.606 59.4681 174.479C59.4681 174.941 59.5078 175.338 59.5871 175.669C59.6665 175.996 59.7831 176.266 59.9371 176.481C60.0911 176.691 60.2801 176.845 60.5041 176.943C60.7281 177.041 60.9825 177.09 61.2671 177.09C61.6778 177.09 62.0348 176.997 62.3381 176.81C62.6461 176.623 62.9285 176.36 63.1851 176.019V172.596ZM64.4311 167.689V178H63.6891C63.5118 178 63.3998 177.914 63.3531 177.741L63.2411 176.88C62.9378 177.244 62.5925 177.538 62.2051 177.762C61.8178 177.986 61.3698 178.098 60.8611 178.098C60.4551 178.098 60.0865 178.021 59.7551 177.867C59.4238 177.708 59.1415 177.477 58.9081 177.174C58.6748 176.871 58.4951 176.493 58.3691 176.04C58.2431 175.587 58.1801 175.067 58.1801 174.479C58.1801 173.956 58.2501 173.471 58.3901 173.023C58.5301 172.57 58.7308 172.178 58.9921 171.847C59.2535 171.516 59.5731 171.257 59.9511 171.07C60.3338 170.879 60.7631 170.783 61.2391 170.783C61.6731 170.783 62.0441 170.858 62.3521 171.007C62.6648 171.152 62.9425 171.355 63.1851 171.616V167.689H64.4311ZM71.2341 176.292C71.4628 176.6 71.7125 176.817 71.9831 176.943C72.2585 177.069 72.5595 177.132 72.8861 177.132C73.5535 177.132 74.0645 176.896 74.4191 176.425C74.7738 175.954 74.9511 175.251 74.9511 174.318C74.9511 173.45 74.7925 172.813 74.4751 172.407C74.1625 171.996 73.7145 171.791 73.1311 171.791C72.7251 171.791 72.3705 171.884 72.0671 172.071C71.7685 172.258 71.4908 172.521 71.2341 172.862V176.292ZM71.2341 171.931C71.5328 171.586 71.8688 171.31 72.2421 171.105C72.6201 170.9 73.0541 170.797 73.5441 170.797C73.9595 170.797 74.3328 170.876 74.6641 171.035C75.0001 171.194 75.2848 171.425 75.5181 171.728C75.7515 172.027 75.9288 172.391 76.0501 172.82C76.1761 173.249 76.2391 173.732 76.2391 174.269C76.2391 174.843 76.1691 175.366 76.0291 175.837C75.8891 176.308 75.6861 176.712 75.4201 177.048C75.1588 177.379 74.8391 177.638 74.4611 177.825C74.0831 178.007 73.6585 178.098 73.1871 178.098C72.7205 178.098 72.3261 178.012 72.0041 177.839C71.6868 177.662 71.4091 177.412 71.1711 177.09L71.1081 177.734C71.0708 177.911 70.9635 178 70.7861 178H69.9811V167.689H71.2341V171.931ZM82.5611 173.681C82.5611 173.392 82.5191 173.128 82.4351 172.89C82.3558 172.647 82.2368 172.44 82.0781 172.267C81.9241 172.09 81.7351 171.954 81.5111 171.861C81.2871 171.763 81.0328 171.714 80.7481 171.714C80.1508 171.714 79.6771 171.889 79.3271 172.239C78.9818 172.584 78.7671 173.065 78.6831 173.681H82.5611ZM83.5691 177.006C83.4151 177.193 83.2308 177.356 83.0161 177.496C82.8015 177.631 82.5705 177.743 82.3231 177.832C82.0805 177.921 81.8285 177.986 81.5671 178.028C81.3058 178.075 81.0468 178.098 80.7901 178.098C80.3001 178.098 79.8475 178.016 79.4321 177.853C79.0215 177.685 78.6645 177.442 78.3611 177.125C78.0625 176.803 77.8291 176.406 77.6611 175.935C77.4931 175.464 77.4091 174.922 77.4091 174.311C77.4091 173.816 77.4838 173.354 77.6331 172.925C77.7871 172.496 78.0065 172.125 78.2911 171.812C78.5758 171.495 78.9235 171.247 79.3341 171.07C79.7448 170.888 80.2068 170.797 80.7201 170.797C81.1448 170.797 81.5368 170.869 81.8961 171.014C82.2601 171.154 82.5728 171.359 82.8341 171.63C83.1001 171.896 83.3078 172.227 83.4571 172.624C83.6065 173.016 83.6811 173.464 83.6811 173.968C83.6811 174.164 83.6601 174.295 83.6181 174.36C83.5761 174.425 83.4968 174.458 83.3801 174.458H78.6411C78.6551 174.906 78.7158 175.296 78.8231 175.627C78.9351 175.958 79.0891 176.236 79.2851 176.46C79.4811 176.679 79.7145 176.845 79.9851 176.957C80.2558 177.064 80.5591 177.118 80.8951 177.118C81.2078 177.118 81.4761 177.083 81.7001 177.013C81.9288 176.938 82.1248 176.859 82.2881 176.775C82.4515 176.691 82.5868 176.614 82.6941 176.544C82.8061 176.469 82.9018 176.432 82.9811 176.432C83.0838 176.432 83.1631 176.472 83.2191 176.551L83.5691 177.006ZM94.5562 170.909L90.6012 180.093C90.5592 180.186 90.5055 180.261 90.4402 180.317C90.3795 180.373 90.2838 180.401 90.1532 180.401H89.2292L90.5242 177.587L87.5982 170.909H88.6762C88.7835 170.909 88.8675 170.937 88.9282 170.993C88.9935 171.044 89.0378 171.103 89.0612 171.168L90.9582 175.634C91.0328 175.83 91.0958 176.035 91.1472 176.25C91.2125 176.031 91.2825 175.823 91.3572 175.627L93.1982 171.168C93.2262 171.093 93.2728 171.033 93.3382 170.986C93.4082 170.935 93.4852 170.909 93.5692 170.909H94.5562ZM98.4545 170.797C98.9725 170.797 99.4392 170.883 99.8545 171.056C100.27 171.229 100.625 171.474 100.919 171.791C101.213 172.108 101.437 172.493 101.591 172.946C101.749 173.394 101.829 173.896 101.829 174.451C101.829 175.011 101.749 175.515 101.591 175.963C101.437 176.411 101.213 176.794 100.919 177.111C100.625 177.428 100.27 177.673 99.8545 177.846C99.4392 178.014 98.9725 178.098 98.4545 178.098C97.9318 178.098 97.4605 178.014 97.0405 177.846C96.6252 177.673 96.2705 177.428 95.9765 177.111C95.6825 176.794 95.4562 176.411 95.2975 175.963C95.1435 175.515 95.0665 175.011 95.0665 174.451C95.0665 173.896 95.1435 173.394 95.2975 172.946C95.4562 172.493 95.6825 172.108 95.9765 171.791C96.2705 171.474 96.6252 171.229 97.0405 171.056C97.4605 170.883 97.9318 170.797 98.4545 170.797ZM98.4545 177.125C99.1545 177.125 99.6772 176.892 100.023 176.425C100.368 175.954 100.541 175.298 100.541 174.458C100.541 173.613 100.368 172.955 100.023 172.484C99.6772 172.013 99.1545 171.777 98.4545 171.777C98.0998 171.777 97.7895 171.838 97.5235 171.959C97.2622 172.08 97.0428 172.255 96.8655 172.484C96.6928 172.713 96.5622 172.995 96.4735 173.331C96.3895 173.662 96.3475 174.038 96.3475 174.458C96.3475 175.298 96.5202 175.954 96.8655 176.425C97.2155 176.892 97.7452 177.125 98.4545 177.125ZM109.24 170.909V178H108.498C108.321 178 108.209 177.914 108.162 177.741L108.064 176.978C107.756 177.319 107.411 177.594 107.028 177.804C106.645 178.009 106.207 178.112 105.712 178.112C105.325 178.112 104.982 178.049 104.683 177.923C104.389 177.792 104.142 177.61 103.941 177.377C103.74 177.144 103.589 176.861 103.486 176.53C103.388 176.199 103.339 175.832 103.339 175.431V170.909H104.585V175.431C104.585 175.968 104.706 176.383 104.949 176.677C105.196 176.971 105.572 177.118 106.076 177.118C106.445 177.118 106.788 177.032 107.105 176.859C107.427 176.682 107.723 176.439 107.994 176.131V170.909H109.24ZM112.399 172.33C112.623 171.845 112.898 171.467 113.225 171.196C113.551 170.921 113.95 170.783 114.422 170.783C114.571 170.783 114.713 170.799 114.849 170.832C114.989 170.865 115.112 170.916 115.22 170.986L115.129 171.917C115.101 172.034 115.031 172.092 114.919 172.092C114.853 172.092 114.758 172.078 114.632 172.05C114.506 172.022 114.363 172.008 114.205 172.008C113.981 172.008 113.78 172.041 113.603 172.106C113.43 172.171 113.274 172.269 113.134 172.4C112.998 172.526 112.875 172.685 112.763 172.876C112.655 173.063 112.557 173.277 112.469 173.52V178H111.216V170.909H111.93C112.065 170.909 112.158 170.935 112.21 170.986C112.261 171.037 112.296 171.126 112.315 171.252L112.399 172.33ZM120.884 167.689V178H119.638V167.689H120.884ZM126.748 174.808C126.174 174.827 125.684 174.873 125.278 174.948C124.877 175.018 124.548 175.111 124.291 175.228C124.039 175.345 123.855 175.482 123.738 175.641C123.626 175.8 123.57 175.977 123.57 176.173C123.57 176.36 123.6 176.521 123.661 176.656C123.722 176.791 123.803 176.903 123.906 176.992C124.013 177.076 124.137 177.139 124.277 177.181C124.422 177.218 124.576 177.237 124.739 177.237C124.958 177.237 125.159 177.216 125.341 177.174C125.523 177.127 125.693 177.062 125.852 176.978C126.015 176.894 126.169 176.794 126.314 176.677C126.463 176.56 126.608 176.427 126.748 176.278V174.808ZM122.723 171.91C123.115 171.532 123.537 171.25 123.99 171.063C124.443 170.876 124.944 170.783 125.495 170.783C125.892 170.783 126.244 170.848 126.552 170.979C126.86 171.11 127.119 171.292 127.329 171.525C127.539 171.758 127.698 172.041 127.805 172.372C127.912 172.703 127.966 173.067 127.966 173.464V178H127.413C127.292 178 127.198 177.981 127.133 177.944C127.068 177.902 127.016 177.823 126.979 177.706L126.839 177.034C126.652 177.207 126.47 177.361 126.293 177.496C126.116 177.627 125.929 177.739 125.733 177.832C125.537 177.921 125.327 177.988 125.103 178.035C124.884 178.086 124.639 178.112 124.368 178.112C124.093 178.112 123.834 178.075 123.591 178C123.348 177.921 123.136 177.804 122.954 177.65C122.777 177.496 122.634 177.302 122.527 177.069C122.424 176.831 122.373 176.551 122.373 176.229C122.373 175.949 122.45 175.681 122.604 175.424C122.758 175.163 123.008 174.932 123.353 174.731C123.698 174.53 124.149 174.367 124.704 174.241C125.259 174.11 125.941 174.036 126.748 174.017V173.464C126.748 172.913 126.629 172.498 126.391 172.218C126.153 171.933 125.805 171.791 125.348 171.791C125.04 171.791 124.781 171.831 124.571 171.91C124.366 171.985 124.186 172.071 124.032 172.169C123.883 172.262 123.752 172.349 123.64 172.428C123.533 172.503 123.425 172.54 123.318 172.54C123.234 172.54 123.162 172.519 123.101 172.477C123.04 172.43 122.989 172.374 122.947 172.309L122.723 171.91ZM133.994 172.078C133.938 172.181 133.852 172.232 133.735 172.232C133.665 172.232 133.586 172.206 133.497 172.155C133.408 172.104 133.299 172.048 133.168 171.987C133.042 171.922 132.89 171.863 132.713 171.812C132.536 171.756 132.326 171.728 132.083 171.728C131.873 171.728 131.684 171.756 131.516 171.812C131.348 171.863 131.203 171.936 131.082 172.029C130.965 172.122 130.874 172.232 130.809 172.358C130.748 172.479 130.718 172.612 130.718 172.757C130.718 172.939 130.769 173.091 130.872 173.212C130.979 173.333 131.119 173.438 131.292 173.527C131.465 173.616 131.661 173.695 131.88 173.765C132.099 173.83 132.323 173.903 132.552 173.982C132.785 174.057 133.012 174.141 133.231 174.234C133.45 174.327 133.646 174.444 133.819 174.584C133.992 174.724 134.129 174.897 134.232 175.102C134.339 175.303 134.393 175.545 134.393 175.83C134.393 176.157 134.335 176.46 134.218 176.74C134.101 177.015 133.929 177.256 133.7 177.461C133.471 177.662 133.191 177.82 132.86 177.937C132.529 178.054 132.146 178.112 131.712 178.112C131.217 178.112 130.769 178.033 130.368 177.874C129.967 177.711 129.626 177.503 129.346 177.251L129.64 176.775C129.677 176.714 129.722 176.668 129.773 176.635C129.824 176.602 129.89 176.586 129.969 176.586C130.053 176.586 130.142 176.619 130.235 176.684C130.328 176.749 130.44 176.822 130.571 176.901C130.706 176.98 130.87 177.053 131.061 177.118C131.252 177.183 131.49 177.216 131.775 177.216C132.018 177.216 132.23 177.186 132.412 177.125C132.594 177.06 132.746 176.973 132.867 176.866C132.988 176.759 133.077 176.635 133.133 176.495C133.194 176.355 133.224 176.206 133.224 176.047C133.224 175.851 133.17 175.69 133.063 175.564C132.96 175.433 132.823 175.324 132.65 175.235C132.477 175.142 132.279 175.062 132.055 174.997C131.836 174.927 131.609 174.855 131.376 174.78C131.147 174.705 130.921 174.621 130.697 174.528C130.478 174.43 130.282 174.309 130.109 174.164C129.936 174.019 129.796 173.842 129.689 173.632C129.586 173.417 129.535 173.158 129.535 172.855C129.535 172.584 129.591 172.325 129.703 172.078C129.815 171.826 129.978 171.607 130.193 171.42C130.408 171.229 130.671 171.077 130.984 170.965C131.297 170.853 131.654 170.797 132.055 170.797C132.522 170.797 132.939 170.872 133.308 171.021C133.681 171.166 134.003 171.366 134.274 171.623L133.994 172.078ZM138.098 178.112C137.538 178.112 137.106 177.956 136.803 177.643C136.504 177.33 136.355 176.88 136.355 176.292V171.952H135.501C135.426 171.952 135.363 171.931 135.312 171.889C135.26 171.842 135.235 171.772 135.235 171.679V171.182L136.397 171.035L136.684 168.844C136.698 168.774 136.728 168.718 136.775 168.676C136.826 168.629 136.891 168.606 136.971 168.606H137.601V171.049H139.652V171.952H137.601V176.208C137.601 176.507 137.673 176.728 137.818 176.873C137.962 177.018 138.149 177.09 138.378 177.09C138.508 177.09 138.62 177.074 138.714 177.041C138.812 177.004 138.896 176.964 138.966 176.922C139.036 176.88 139.094 176.843 139.141 176.81C139.192 176.773 139.236 176.754 139.274 176.754C139.339 176.754 139.397 176.794 139.449 176.873L139.813 177.468C139.598 177.669 139.339 177.827 139.036 177.944C138.732 178.056 138.42 178.112 138.098 178.112ZM149.455 172.169C149.418 172.22 149.381 172.26 149.343 172.288C149.306 172.316 149.255 172.33 149.189 172.33C149.119 172.33 149.042 172.302 148.958 172.246C148.874 172.185 148.769 172.12 148.643 172.05C148.522 171.98 148.37 171.917 148.188 171.861C148.011 171.8 147.792 171.77 147.53 171.77C147.18 171.77 146.872 171.833 146.606 171.959C146.34 172.08 146.116 172.258 145.934 172.491C145.757 172.724 145.622 173.007 145.528 173.338C145.44 173.669 145.395 174.04 145.395 174.451C145.395 174.88 145.444 175.263 145.542 175.599C145.64 175.93 145.778 176.21 145.955 176.439C146.137 176.663 146.354 176.836 146.606 176.957C146.863 177.074 147.15 177.132 147.467 177.132C147.771 177.132 148.02 177.097 148.216 177.027C148.412 176.952 148.573 176.871 148.699 176.782C148.83 176.693 148.937 176.614 149.021 176.544C149.11 176.469 149.196 176.432 149.28 176.432C149.383 176.432 149.462 176.472 149.518 176.551L149.868 177.006C149.714 177.197 149.539 177.361 149.343 177.496C149.147 177.631 148.935 177.746 148.706 177.839C148.482 177.928 148.247 177.993 147.999 178.035C147.752 178.077 147.5 178.098 147.243 178.098C146.8 178.098 146.387 178.016 146.004 177.853C145.626 177.69 145.297 177.454 145.017 177.146C144.737 176.833 144.518 176.451 144.359 175.998C144.201 175.545 144.121 175.03 144.121 174.451C144.121 173.924 144.194 173.436 144.338 172.988C144.488 172.54 144.702 172.155 144.982 171.833C145.267 171.506 145.615 171.252 146.025 171.07C146.441 170.888 146.917 170.797 147.453 170.797C147.953 170.797 148.391 170.879 148.769 171.042C149.152 171.201 149.49 171.427 149.784 171.721L149.455 172.169ZM152.459 171.854C152.762 171.532 153.098 171.275 153.467 171.084C153.835 170.893 154.26 170.797 154.741 170.797C155.128 170.797 155.469 170.862 155.763 170.993C156.061 171.119 156.309 171.301 156.505 171.539C156.705 171.772 156.857 172.055 156.96 172.386C157.062 172.717 157.114 173.084 157.114 173.485V178H155.861V173.485C155.861 172.948 155.737 172.533 155.49 172.239C155.247 171.94 154.876 171.791 154.377 171.791C154.008 171.791 153.663 171.88 153.341 172.057C153.023 172.234 152.729 172.475 152.459 172.778V178H151.206V167.689H152.459V171.854ZM162.855 174.808C162.281 174.827 161.791 174.873 161.385 174.948C160.984 175.018 160.655 175.111 160.398 175.228C160.146 175.345 159.962 175.482 159.845 175.641C159.733 175.8 159.677 175.977 159.677 176.173C159.677 176.36 159.708 176.521 159.768 176.656C159.829 176.791 159.911 176.903 160.013 176.992C160.121 177.076 160.244 177.139 160.384 177.181C160.529 177.218 160.683 177.237 160.846 177.237C161.066 177.237 161.266 177.216 161.448 177.174C161.63 177.127 161.801 177.062 161.959 176.978C162.123 176.894 162.277 176.794 162.421 176.677C162.571 176.56 162.715 176.427 162.855 176.278V174.808ZM158.83 171.91C159.222 171.532 159.645 171.25 160.097 171.063C160.55 170.876 161.052 170.783 161.602 170.783C161.999 170.783 162.351 170.848 162.659 170.979C162.967 171.11 163.226 171.292 163.436 171.525C163.646 171.758 163.805 172.041 163.912 172.372C164.02 172.703 164.073 173.067 164.073 173.464V178H163.52C163.399 178 163.306 177.981 163.24 177.944C163.175 177.902 163.124 177.823 163.086 177.706L162.946 177.034C162.76 177.207 162.578 177.361 162.4 177.496C162.223 177.627 162.036 177.739 161.84 177.832C161.644 177.921 161.434 177.988 161.21 178.035C160.991 178.086 160.746 178.112 160.475 178.112C160.2 178.112 159.941 178.075 159.698 178C159.456 177.921 159.243 177.804 159.061 177.65C158.884 177.496 158.742 177.302 158.634 177.069C158.532 176.831 158.48 176.551 158.48 176.229C158.48 175.949 158.557 175.681 158.711 175.424C158.865 175.163 159.115 174.932 159.46 174.731C159.806 174.53 160.256 174.367 160.811 174.241C161.367 174.11 162.048 174.036 162.855 174.017V173.464C162.855 172.913 162.736 172.498 162.498 172.218C162.26 171.933 161.913 171.791 161.455 171.791C161.147 171.791 160.888 171.831 160.678 171.91C160.473 171.985 160.293 172.071 160.139 172.169C159.99 172.262 159.859 172.349 159.747 172.428C159.64 172.503 159.533 172.54 159.425 172.54C159.341 172.54 159.269 172.519 159.208 172.477C159.148 172.43 159.096 172.374 159.054 172.309L158.83 171.91ZM167.147 171.938C167.301 171.765 167.465 171.609 167.637 171.469C167.81 171.329 167.992 171.21 168.183 171.112C168.379 171.009 168.585 170.932 168.799 170.881C169.019 170.825 169.254 170.797 169.506 170.797C169.894 170.797 170.234 170.862 170.528 170.993C170.827 171.119 171.074 171.301 171.27 171.539C171.471 171.772 171.623 172.055 171.725 172.386C171.828 172.717 171.879 173.084 171.879 173.485V178H170.626V173.485C170.626 172.948 170.503 172.533 170.255 172.239C170.013 171.94 169.642 171.791 169.142 171.791C168.774 171.791 168.428 171.88 168.106 172.057C167.789 172.234 167.495 172.475 167.224 172.778V178H165.971V170.909H166.72C166.898 170.909 167.007 170.995 167.049 171.168L167.147 171.938ZM178.713 172.169C178.676 172.22 178.638 172.26 178.601 172.288C178.564 172.316 178.512 172.33 178.447 172.33C178.377 172.33 178.3 172.302 178.216 172.246C178.132 172.185 178.027 172.12 177.901 172.05C177.78 171.98 177.628 171.917 177.446 171.861C177.269 171.8 177.049 171.77 176.788 171.77C176.438 171.77 176.13 171.833 175.864 171.959C175.598 172.08 175.374 172.258 175.192 172.491C175.015 172.724 174.879 173.007 174.786 173.338C174.697 173.669 174.653 174.04 174.653 174.451C174.653 174.88 174.702 175.263 174.8 175.599C174.898 175.93 175.036 176.21 175.213 176.439C175.395 176.663 175.612 176.836 175.864 176.957C176.121 177.074 176.408 177.132 176.725 177.132C177.028 177.132 177.278 177.097 177.474 177.027C177.67 176.952 177.831 176.871 177.957 176.782C178.088 176.693 178.195 176.614 178.279 176.544C178.368 176.469 178.454 176.432 178.538 176.432C178.641 176.432 178.72 176.472 178.776 176.551L179.126 177.006C178.972 177.197 178.797 177.361 178.601 177.496C178.405 177.631 178.193 177.746 177.964 177.839C177.74 177.928 177.504 177.993 177.257 178.035C177.01 178.077 176.758 178.098 176.501 178.098C176.058 178.098 175.645 178.016 175.262 177.853C174.884 177.69 174.555 177.454 174.275 177.146C173.995 176.833 173.776 176.451 173.617 175.998C173.458 175.545 173.379 175.03 173.379 174.451C173.379 173.924 173.451 173.436 173.596 172.988C173.745 172.54 173.96 172.155 174.24 171.833C174.525 171.506 174.872 171.252 175.283 171.07C175.698 170.888 176.174 170.797 176.711 170.797C177.21 170.797 177.649 170.879 178.027 171.042C178.41 171.201 178.748 171.427 179.042 171.721L178.713 172.169ZM185.087 173.681C185.087 173.392 185.045 173.128 184.961 172.89C184.881 172.647 184.762 172.44 184.604 172.267C184.45 172.09 184.261 171.954 184.037 171.861C183.813 171.763 183.558 171.714 183.274 171.714C182.676 171.714 182.203 171.889 181.853 172.239C181.507 172.584 181.293 173.065 181.209 173.681H185.087ZM186.095 177.006C185.941 177.193 185.756 177.356 185.542 177.496C185.327 177.631 185.096 177.743 184.849 177.832C184.606 177.921 184.354 177.986 184.093 178.028C183.831 178.075 183.572 178.098 183.316 178.098C182.826 178.098 182.373 178.016 181.958 177.853C181.547 177.685 181.19 177.442 180.887 177.125C180.588 176.803 180.355 176.406 180.187 175.935C180.019 175.464 179.935 174.922 179.935 174.311C179.935 173.816 180.009 173.354 180.159 172.925C180.313 172.496 180.532 172.125 180.817 171.812C181.101 171.495 181.449 171.247 181.86 171.07C182.27 170.888 182.732 170.797 183.246 170.797C183.67 170.797 184.062 170.869 184.422 171.014C184.786 171.154 185.098 171.359 185.36 171.63C185.626 171.896 185.833 172.227 185.983 172.624C186.132 173.016 186.207 173.464 186.207 173.968C186.207 174.164 186.186 174.295 186.144 174.36C186.102 174.425 186.022 174.458 185.906 174.458H181.167C181.181 174.906 181.241 175.296 181.349 175.627C181.461 175.958 181.615 176.236 181.811 176.46C182.007 176.679 182.24 176.845 182.511 176.957C182.781 177.064 183.085 177.118 183.421 177.118C183.733 177.118 184.002 177.083 184.226 177.013C184.454 176.938 184.65 176.859 184.814 176.775C184.977 176.691 185.112 176.614 185.22 176.544C185.332 176.469 185.427 176.432 185.507 176.432C185.609 176.432 185.689 176.472 185.745 176.551L186.095 177.006ZM187.527 177.23C187.527 177.109 187.548 176.994 187.59 176.887C187.637 176.78 187.697 176.686 187.772 176.607C187.851 176.528 187.945 176.465 188.052 176.418C188.159 176.371 188.274 176.348 188.395 176.348C188.516 176.348 188.631 176.371 188.738 176.418C188.845 176.465 188.939 176.528 189.018 176.607C189.097 176.686 189.16 176.78 189.207 176.887C189.254 176.994 189.277 177.109 189.277 177.23C189.277 177.356 189.254 177.473 189.207 177.58C189.16 177.683 189.097 177.774 189.018 177.853C188.939 177.932 188.845 177.993 188.738 178.035C188.631 178.082 188.516 178.105 188.395 178.105C188.274 178.105 188.159 178.082 188.052 178.035C187.945 177.993 187.851 177.932 187.772 177.853C187.697 177.774 187.637 177.683 187.59 177.58C187.548 177.473 187.527 177.356 187.527 177.23Z" fill="#282828"/>
<line x1="4" y1="157.15" x2="192" y2="157.15" stroke="#828091" stroke-width="1.7"/>
<line x1="4" y1="1.15" x2="192" y2="1.15" stroke="#828091" stroke-width="1.7"/>
<defs>
<linearGradient id="paint0_linear_593_20" x1="280" y1="16" x2="223.76" y2="136.951" gradientUnits="userSpaceOnUse">
<stop stop-color="#1C0082"/>
<stop offset="1" stop-color="#C02772"/>
</linearGradient>
<linearGradient id="paint1_linear_593_20" x1="137.5" y1="167" x2="132.341" y2="53.4616" gradientUnits="userSpaceOnUse">
<stop stop-color="#1C0082"/>
<stop offset="1" stop-color="#C02772"/>
</linearGradient>
<linearGradient id="paint2_linear_593_20" x1="15.5" y1="75" x2="15" y2="216" gradientUnits="userSpaceOnUse">
<stop stop-color="#532C85" stop-opacity="0"/>
<stop offset="1" stop-color="#BE2475"/>
</linearGradient>
</defs>
</svg>
