<svg width="17" height="19" viewBox="0 0 17 19" fill="none" xmlns="http://www.w3.org/2000/svg">
<path d="M2.5383 17.129C0.186782 14.9303 0.0624552 11.23 2.26109 8.87851L9.34841 1.29838C10.8953 -0.356071 13.4998 -0.443581 15.1543 1.10331C16.8087 2.6502 16.8962 5.25472 15.3493 6.90918L8.85264 13.8576C7.9575 14.815 6.44874 14.8657 5.49135 13.9706C4.53396 13.0754 4.48327 11.5667 5.37841 10.6093L10.6939 4.92418C10.9385 4.66262 11.3491 4.64883 11.6106 4.89337C11.8722 5.13792 11.886 5.54854 11.6414 5.81009L6.32593 11.4952C5.91873 11.9307 5.94175 12.6158 6.37726 13.023C6.81278 13.4302 7.49793 13.4072 7.90512 12.9717L14.4018 6.02326C15.4602 4.8913 15.4009 3.10977 14.2684 2.05083C13.1358 0.991881 11.3543 1.05233 10.2959 2.1843L3.20861 9.76443C1.49907 11.5928 1.5958 14.4719 3.42421 16.1814C5.25263 17.891 8.13169 17.7942 9.84122 15.9658L15.7473 9.64905C15.9919 9.3875 16.4025 9.3737 16.664 9.61825C16.9256 9.8628 16.9394 10.2734 16.6948 10.535L10.7887 16.8517C8.5901 19.2033 4.88982 19.3276 2.5383 17.129Z" fill="white"/>
</svg>
