<svg width="19" height="19" viewBox="0 0 19 19" fill="none" xmlns="http://www.w3.org/2000/svg">
<path d="M15.5805 2.7495H14.664V0.9165C14.664 0.673429 14.5674 0.440314 14.3956 0.268437C14.2237 0.0965595 13.9906 0 13.7475 0C13.5044 0 13.2713 0.0965595 13.0994 0.268437C12.9276 0.440314 12.831 0.673429 12.831 0.9165V2.7495H5.499V0.9165C5.499 0.673429 5.40244 0.440314 5.23056 0.268437C5.05869 0.0965595 4.82557 0 4.5825 0C4.33943 0 4.10631 0.0965595 3.93444 0.268437C3.76256 0.440314 3.666 0.673429 3.666 0.9165V2.7495H2.7495C2.02029 2.7495 1.32094 3.03918 0.80531 3.55481C0.289679 4.07044 0 4.76979 0 5.499V6.4155H18.33V5.499C18.33 4.76979 18.0403 4.07044 17.5247 3.55481C17.0091 3.03918 16.3097 2.7495 15.5805 2.7495Z" fill="#D5702C"/>
<path d="M0 15.5805C0 16.3097 0.289679 17.0091 0.80531 17.5247C1.32094 18.0404 2.02029 18.33 2.7495 18.33H15.5805C16.3097 18.33 17.0091 18.0404 17.5247 17.5247C18.0403 17.0091 18.33 16.3097 18.33 15.5805V8.24854H0V15.5805Z" fill="#D5702C"/>
</svg>
