<svg width="19" height="19" viewBox="0 0 19 19" fill="none" xmlns="http://www.w3.org/2000/svg">
<path d="M2.71429 0C1.21719 0 0 1.17427 0 2.61857V15.7114C0 17.1557 1.21719 18.33 2.71429 18.33H16.2857C17.7828 18.33 19 17.1557 19 15.7114V2.61857C19 1.17427 17.7828 0 16.2857 0H2.71429ZM5.42857 7.85571C6.17924 7.85571 6.78571 8.4408 6.78571 9.165V13.0929C6.78571 13.8171 6.17924 14.4021 5.42857 14.4021C4.6779 14.4021 4.07143 13.8171 4.07143 13.0929V9.165C4.07143 8.4408 4.6779 7.85571 5.42857 7.85571ZM8.14286 5.23714C8.14286 4.51294 8.74933 3.92786 9.5 3.92786C10.2507 3.92786 10.8571 4.51294 10.8571 5.23714V13.0929C10.8571 13.8171 10.2507 14.4021 9.5 14.4021C8.74933 14.4021 8.14286 13.8171 8.14286 13.0929V5.23714ZM13.5714 10.4743C14.3221 10.4743 14.9286 11.0594 14.9286 11.7836V13.0929C14.9286 13.8171 14.3221 14.4021 13.5714 14.4021C12.8208 14.4021 12.2143 13.8171 12.2143 13.0929V11.7836C12.2143 11.0594 12.8208 10.4743 13.5714 10.4743Z" fill="#901D56"/>
</svg>
