<svg width="22" height="22" viewBox="0 0 22 22" fill="none" xmlns="http://www.w3.org/2000/svg">
<g clip-path="url(#clip0_0_1131)">
<path d="M13.7499 5.95837C13.2439 5.95837 12.8333 5.54771 12.8333 5.04171V3.66671H9.16659V5.04171C9.16659 5.54771 8.75592 5.95837 8.24992 5.95837C7.74392 5.95837 7.33325 5.54771 7.33325 5.04171V3.66671C7.33325 2.65562 8.1555 1.83337 9.16659 1.83337H12.8333C13.8443 1.83337 14.6666 2.65562 14.6666 3.66671V5.04171C14.6666 5.54771 14.2559 5.95837 13.7499 5.95837Z" fill="#901D56"/>
<path d="M11.6508 14.0983C11.4858 14.1624 11.2475 14.2083 11 14.2083C10.7525 14.2083 10.5142 14.1624 10.2942 14.0799L0 10.6516V17.6458C0 19.0391 1.1275 20.1666 2.52083 20.1666H19.4792C20.8725 20.1666 22 19.0391 22 17.6458V10.6516L11.6508 14.0983Z" fill="#901D56"/>
<path d="M22 7.10421V9.20337L11.22 12.7967C11.1467 12.8242 11.0733 12.8334 11 12.8334C10.9267 12.8334 10.8533 12.8242 10.78 12.7967L0 9.20337V7.10421C0 5.71087 1.1275 4.58337 2.52083 4.58337H19.4792C20.8725 4.58337 22 5.71087 22 7.10421Z" fill="#901D56"/>
</g>
<defs>
<clipPath id="clip0_0_1131">
<rect width="22" height="22" fill="white"/>
</clipPath>
</defs>
</svg>
