<svg width="22" height="19" viewBox="0 0 22 19" fill="none" xmlns="http://www.w3.org/2000/svg">
<path d="M13.7475 4.12424C13.2416 4.12424 12.831 3.71364 12.831 3.20774V1.83299H9.16502V3.20774C9.16502 3.71364 8.75443 4.12424 8.24853 4.12424C7.74262 4.12424 7.33203 3.71364 7.33203 3.20774V1.83299C7.33203 0.822098 8.15413 0 9.16502 0H12.831C13.8419 0 14.664 0.822098 14.664 1.83299V3.20774C14.664 3.71364 14.2534 4.12424 13.7475 4.12424Z" fill="#901D56"/>
<path d="M11.6487 12.2628C11.4837 12.327 11.2454 12.3728 10.998 12.3728C10.7505 12.3728 10.5122 12.327 10.2923 12.2445L0 8.81677V15.8096C0 17.2027 1.12729 18.33 2.52037 18.33H19.4756C20.8686 18.33 21.9959 17.2027 21.9959 15.8096V8.81677L11.6487 12.2628Z" fill="#901D56"/>
<path d="M21.9959 5.08665V7.18543L11.2179 10.7781C11.1446 10.8056 11.0713 10.8148 10.998 10.8148C10.9246 10.8148 10.8513 10.8056 10.778 10.7781L0 7.18543V5.08665C0 3.69358 1.12729 2.56628 2.52037 2.56628H19.4756C20.8686 2.56628 21.9959 3.69358 21.9959 5.08665Z" fill="#901D56"/>
</svg>
