<svg width="20" height="19" viewBox="0 0 20 19" fill="none" xmlns="http://www.w3.org/2000/svg">
<path d="M5.20784 14.5833C3.87368 14.5833 2.68701 13.7291 2.25618 12.4574L2.22701 12.3616C2.12534 12.0249 2.08284 11.7416 2.08284 11.4583V5.77661L0.0611761 12.5249C-0.198824 13.5174 0.393676 14.5466 1.38784 14.8208L14.2737 18.2716C14.4345 18.3133 14.5953 18.3333 14.7537 18.3333C15.5837 18.3333 16.342 17.7824 16.5545 16.9708L17.3053 14.5833H5.20784Z" fill="#901D56"/>
<path d="M7.49943 5.83333C8.4186 5.83333 9.1661 5.08583 9.1661 4.16667C9.1661 3.2475 8.4186 2.5 7.49943 2.5C6.58026 2.5 5.83276 3.2475 5.83276 4.16667C5.83276 5.08583 6.58026 5.83333 7.49943 5.83333Z" fill="#901D56"/>
<path d="M17.9161 0H5.4161C4.26776 0 3.33276 0.935 3.33276 2.08333V11.25C3.33276 12.3983 4.26776 13.3333 5.4161 13.3333H17.9161C19.0644 13.3333 19.9994 12.3983 19.9994 11.25V2.08333C19.9994 0.935 19.0644 0 17.9161 0ZM5.4161 1.66667H17.9161C18.1461 1.66667 18.3328 1.85333 18.3328 2.08333V7.99917L15.7003 4.9275C15.4211 4.6 15.0169 4.425 14.5828 4.415C14.1511 4.4175 13.7461 4.60917 13.4694 4.94083L10.3744 8.65583L9.3661 7.65C8.7961 7.08 7.8686 7.08 7.29943 7.65L4.99943 9.94917V2.08333C4.99943 1.85333 5.1861 1.66667 5.4161 1.66667Z" fill="#901D56"/>
</svg>
