<svg width="22" height="22" viewBox="0 0 22 22" fill="none" xmlns="http://www.w3.org/2000/svg">
<path d="M17.4166 4.58337H16.4999V2.75004C16.4999 2.50693 16.4033 2.27377 16.2314 2.10186C16.0595 1.92995 15.8264 1.83337 15.5833 1.83337C15.3401 1.83337 15.107 1.92995 14.9351 2.10186C14.7632 2.27377 14.6666 2.50693 14.6666 2.75004V4.58337H7.33325V2.75004C7.33325 2.50693 7.23667 2.27377 7.06477 2.10186C6.89286 1.92995 6.6597 1.83337 6.41659 1.83337C6.17347 1.83337 5.94031 1.92995 5.7684 2.10186C5.5965 2.27377 5.49992 2.50693 5.49992 2.75004V4.58337H4.58325C3.85391 4.58337 3.15443 4.87311 2.63871 5.38883C2.12298 5.90456 1.83325 6.60403 1.83325 7.33337V8.25004H20.1666V7.33337C20.1666 6.60403 19.8769 5.90456 19.3611 5.38883C18.8454 4.87311 18.1459 4.58337 17.4166 4.58337Z" fill="#D5702C"/>
<path d="M1.83325 17.4167C1.83325 18.1461 2.12298 18.8455 2.63871 19.3613C3.15443 19.877 3.85391 20.1667 4.58325 20.1667H17.4166C18.1459 20.1667 18.8454 19.877 19.3611 19.3613C19.8769 18.8455 20.1666 18.1461 20.1666 17.4167V10.0834H1.83325V17.4167Z" fill="#D5702C"/>
</svg>
