<svg width="15" height="19" viewBox="0 0 15 19" fill="none" xmlns="http://www.w3.org/2000/svg">
<path d="M14.2308 4.87571L10.2885 0.784539C9.80766 0.297503 9.13463 0.00527325 8.36541 0.00527325H2.69231C1.25 -0.0921398 0 1.17418 0 2.63531V16.2725C0 17.7337 1.15385 19 2.69231 19H12.3077C13.75 19 15 17.8311 15 16.2725V6.72649C15 6.04462 14.7115 5.36276 14.2308 4.87571ZM4.61539 7.70061H7.5C7.88466 7.70061 8.26922 7.99283 8.26922 8.47989C8.26922 8.96686 7.98075 9.25908 7.5 9.25908H4.61539C4.23077 9.25908 3.84615 8.96686 3.84615 8.47989C3.84615 7.99283 4.23077 7.70061 4.61539 7.70061ZM10.3846 13.1555H4.61539C4.23077 13.1555 3.84615 12.8633 3.84615 12.3762C3.84615 11.8892 4.13462 11.5969 4.61539 11.5969H10.3846C10.7692 11.5969 11.1538 11.8892 11.1538 12.3762C11.1538 12.8633 10.7692 13.1555 10.3846 13.1555Z" fill="#D5702C"/>
</svg>
