<svg width="19" height="18" viewBox="0 0 19 18" fill="none" xmlns="http://www.w3.org/2000/svg">
<path d="M16.5442 0.990192L1.57378 5.62866C1.29647 5.70227 1.05033 5.86345 0.87201 6.08822C0.693687 6.31299 0.592707 6.58933 0.584096 6.87612C0.575486 7.1629 0.659707 7.4448 0.824224 7.67987C0.988742 7.91493 1.22476 8.09059 1.49716 8.1807L8.28688 10.4557C8.31163 10.4651 8.33427 10.4794 8.35349 10.4976C8.37271 10.5158 8.38813 10.5376 8.39887 10.5618L10.8979 17.0451C10.999 17.3055 11.1775 17.5287 11.4093 17.6847C11.6411 17.8406 11.9151 17.9218 12.1945 17.9174H12.2299C12.5139 17.9165 12.7905 17.826 13.0201 17.6588C13.2497 17.4916 13.4208 17.2562 13.5088 16.9861L18.2711 2.68762C18.3457 2.45869 18.3567 2.21376 18.3027 1.97909C18.2487 1.74442 18.1318 1.52889 17.9646 1.35561C17.7858 1.16785 17.5578 1.03406 17.3067 0.969459C17.0556 0.904857 16.7914 0.912041 16.5442 0.990192Z" fill="#B6B6B6"/>
</svg>
