<svg width="18" height="12" viewBox="0 0 18 12" fill="none" xmlns="http://www.w3.org/2000/svg">
<path d="M17.25 11.25C17.25 11.4489 17.171 11.6397 17.0303 11.7803C16.8897 11.921 16.6989 12 16.5 12H7.5C7.30109 12 7.11032 11.921 6.96967 11.7803C6.82902 11.6397 6.75 11.4489 6.75 11.25C6.75 10.0565 7.22411 8.91193 8.06802 8.06802C8.91193 7.22411 10.0565 6.75 11.25 6.75H12.75C13.9435 6.75 15.0881 7.22411 15.932 8.06802C16.7759 8.91193 17.25 10.0565 17.25 11.25ZM12 0C11.4067 0 10.8266 0.175947 10.3333 0.505591C9.83994 0.835235 9.45542 1.30377 9.22836 1.85195C9.0013 2.40013 8.94189 3.00333 9.05764 3.58527C9.1734 4.16721 9.45912 4.70176 9.87868 5.12132C10.2982 5.54088 10.8328 5.8266 11.4147 5.94236C11.9967 6.05811 12.5999 5.9987 13.1481 5.77164C13.6962 5.54458 14.1648 5.16006 14.4944 4.66671C14.8241 4.17336 15 3.59334 15 3C15 2.20435 14.6839 1.44129 14.1213 0.87868C13.5587 0.31607 12.7956 0 12 0ZM5.25 0C4.65666 0 4.07664 0.175947 3.58329 0.505591C3.08994 0.835235 2.70542 1.30377 2.47836 1.85195C2.2513 2.40013 2.19189 3.00333 2.30764 3.58527C2.4234 4.16721 2.70912 4.70176 3.12868 5.12132C3.54824 5.54088 4.08279 5.8266 4.66473 5.94236C5.24667 6.05811 5.84987 5.9987 6.39805 5.77164C6.94623 5.54458 7.41476 5.16006 7.74441 4.66671C8.07405 4.17336 8.25 3.59334 8.25 3C8.25 2.20435 7.93393 1.44129 7.37132 0.87868C6.80871 0.31607 6.04565 0 5.25 0ZM5.25 11.25C5.24888 10.4622 5.40409 9.68202 5.70663 8.95464C6.00917 8.22726 6.45303 7.56713 7.0125 7.0125C6.55465 6.83964 6.06939 6.75072 5.58 6.75H4.92C3.81466 6.75198 2.75515 7.19196 1.97355 7.97356C1.19196 8.75515 0.751983 9.81466 0.75 10.92V11.25C0.75 11.4489 0.829018 11.6397 0.96967 11.7803C1.11032 11.921 1.30109 12 1.5 12H5.385C5.29768 11.7595 5.25203 11.5059 5.25 11.25Z" fill="#992B4C"/>
</svg>
