<svg width="16" height="14" viewBox="0 0 16 14" fill="none" xmlns="http://www.w3.org/2000/svg">
<path d="M4.97627 14C4.91787 14 4.8605 13.9847 4.80982 13.9557C4.75915 13.9267 4.71694 13.8849 4.68738 13.8346C3.43527 11.7014 0.0987207 7.16146 0.0651559 7.11584C0.0174834 7.05104 -0.00527778 6.97125 0.00103274 6.89105C0.00734326 6.81085 0.042304 6.7356 0.0995246 6.67906L1.12516 5.66558C1.18088 5.61052 1.25414 5.57673 1.33219 5.57008C1.41025 5.56344 1.48816 5.58435 1.55239 5.6292L4.90642 7.97123C7.13631 5.10664 9.20855 3.1297 10.5706 1.96485C12.0972 0.659002 13.0679 0.0722213 13.1084 0.0477679C13.1605 0.0165145 13.2201 3.07742e-06 13.2808 4.48702e-09H14.94C15.0079 -1.11083e-05 15.0742 0.02062 15.1302 0.0591578C15.1861 0.0976957 15.229 0.15232 15.2531 0.215788C15.2773 0.279256 15.2816 0.348569 15.2655 0.414538C15.2493 0.480507 15.2135 0.540016 15.1628 0.585173C12.703 2.77593 10.1457 6.25678 8.43351 8.79099C6.57227 11.5457 5.28019 13.8083 5.26736 13.8308C5.23828 13.8819 5.19627 13.9244 5.14557 13.9541C5.09486 13.9838 5.03724 13.9996 4.97848 14L4.97627 14Z" fill="#535353"/>
</svg>
