<svg width="20" height="20" viewBox="0 0 20 20" fill="none" xmlns="http://www.w3.org/2000/svg">
<g clip-path="url(#clip0_0_666)">
<path d="M4.16651 0H15.7707C16.7158 0 17.5457 0.777476 17.5457 1.69775V18.8639C17.5457 19.172 17.4599 19.4287 17.3217 19.6271C17.1565 19.8642 16.8904 20.0001 16.6051 20C16.3353 20 16.0481 19.8799 15.7829 19.6534L10.5912 15.2453C10.4308 15.1084 10.2005 15.0299 9.96104 15.0299C9.72165 15.0299 9.4918 15.1084 9.33098 15.2457L4.15661 19.6527C3.89044 19.8799 3.62304 20.0001 3.35376 20.0001C2.89839 20.0001 2.45452 19.6488 2.45452 18.864V1.69775C2.45452 0.777476 3.22143 0 4.16651 0Z" fill="black"/>
<path d="M4.16651 0H15.7707C16.7158 0 17.5457 0.777476 17.5457 1.69775V18.8639C17.5457 19.172 17.4599 19.4287 17.3217 19.6271C17.1565 19.8642 16.8904 20.0001 16.6051 20C16.3353 20 16.0481 19.8799 15.7829 19.6534L10.5912 15.2453C10.4308 15.1084 10.2005 15.0299 9.96104 15.0299C9.72165 15.0299 9.4918 15.1084 9.33098 15.2457L4.15661 19.6527C3.89044 19.8799 3.62304 20.0001 3.35376 20.0001C2.89839 20.0001 2.45452 19.6488 2.45452 18.864V1.69775C2.45452 0.777476 3.22143 0 4.16651 0Z" fill="url(#paint0_linear_0_666)"/>
</g>
<defs>
<linearGradient id="paint0_linear_0_666" x1="8.78014" y1="25.3847" x2="-4.03923" y2="11.5119" gradientUnits="userSpaceOnUse">
<stop stop-color="#532C85"/>
<stop offset="1" stop-color="#BE2475"/>
</linearGradient>
<clipPath id="clip0_0_666">
<rect width="20" height="20" fill="white" transform="matrix(-1 0 0 1 20 0)"/>
</clipPath>
</defs>
</svg>
