<svg width="18" height="18" viewBox="0 0 18 18" fill="none" xmlns="http://www.w3.org/2000/svg">
<path d="M17.7764 15.0933L17.7444 15.05C17.0849 14.2864 16.2745 13.7271 15.4909 13.1868C15.171 12.966 14.6025 12.6102 14.2003 12.324C15.1337 11.0061 15.6336 9.43023 15.6308 7.81523C15.6308 3.4991 12.1317 0 7.81523 0C3.49875 0 0 3.4991 0 7.81523C0 12.1314 3.4991 15.6308 7.81523 15.6308C9.42821 15.6332 11.0021 15.1343 12.3191 14.2031C12.6056 14.605 12.9611 15.1724 13.1822 15.4923C13.7239 16.2773 14.284 17.0859 15.0469 17.7448L15.0901 17.7764C15.3334 17.9251 15.6136 18.0026 15.8987 18C16.3297 17.9987 16.745 17.8376 17.0641 17.5479L17.5359 17.0771L17.5472 17.0655C18.0496 16.5157 18.1459 15.6864 17.7764 15.0933ZM7.81523 13.5918C6.47861 13.5919 5.18329 13.1286 4.14999 12.2807C3.11669 11.4329 2.40935 10.253 2.14848 8.94206C1.88762 7.63114 2.08938 6.27032 2.71938 5.09149C3.34938 3.91265 4.36865 2.98874 5.6035 2.47718C6.83835 1.96561 8.21238 1.89806 9.49146 2.28601C10.7705 2.67397 11.8755 3.49344 12.6181 4.60478C13.3607 5.71613 13.695 7.05058 13.564 8.38077C13.433 9.71095 12.8448 10.9546 11.8997 11.8997C11.3646 12.4378 10.728 12.8644 10.0269 13.1548C9.32585 13.4453 8.57411 13.5938 7.81523 13.5918Z" fill="#535353"/>
<path d="M17.7764 15.0933L17.7444 15.05C17.0849 14.2864 16.2745 13.7271 15.4909 13.1868C15.171 12.966 14.6025 12.6102 14.2003 12.324C15.1337 11.0061 15.6336 9.43023 15.6308 7.81523C15.6308 3.4991 12.1317 0 7.81523 0C3.49875 0 0 3.4991 0 7.81523C0 12.1314 3.4991 15.6308 7.81523 15.6308C9.42821 15.6332 11.0021 15.1343 12.3191 14.2031C12.6056 14.605 12.9611 15.1724 13.1822 15.4923C13.7239 16.2773 14.284 17.0859 15.0469 17.7448L15.0901 17.7764C15.3334 17.9251 15.6136 18.0026 15.8987 18C16.3297 17.9987 16.745 17.8376 17.0641 17.5479L17.5359 17.0771L17.5472 17.0655C18.0496 16.5157 18.1459 15.6864 17.7764 15.0933ZM7.81523 13.5918C6.47861 13.5919 5.18329 13.1286 4.14999 12.2807C3.11669 11.4329 2.40935 10.253 2.14848 8.94206C1.88762 7.63114 2.08938 6.27032 2.71938 5.09149C3.34938 3.91265 4.36865 2.98874 5.6035 2.47718C6.83835 1.96561 8.21238 1.89806 9.49146 2.28601C10.7705 2.67397 11.8755 3.49344 12.6181 4.60478C13.3607 5.71613 13.695 7.05058 13.564 8.38077C13.433 9.71095 12.8448 10.9546 11.8997 11.8997C11.3646 12.4378 10.728 12.8644 10.0269 13.1548C9.32585 13.4453 8.57411 13.5938 7.81523 13.5918Z" fill="#535353"/>
<path d="M17.7764 15.0933L17.7444 15.05C17.0849 14.2864 16.2745 13.7271 15.4909 13.1868C15.171 12.966 14.6025 12.6102 14.2003 12.324C15.1337 11.0061 15.6336 9.43023 15.6308 7.81523C15.6308 3.4991 12.1317 0 7.81523 0C3.49875 0 0 3.4991 0 7.81523C0 12.1314 3.4991 15.6308 7.81523 15.6308C9.42821 15.6332 11.0021 15.1343 12.3191 14.2031C12.6056 14.605 12.9611 15.1724 13.1822 15.4923C13.7239 16.2773 14.284 17.0859 15.0469 17.7448L15.0901 17.7764C15.3334 17.9251 15.6136 18.0026 15.8987 18C16.3297 17.9987 16.745 17.8376 17.0641 17.5479L17.5359 17.0771L17.5472 17.0655C18.0496 16.5157 18.1459 15.6864 17.7764 15.0933ZM7.81523 13.5918C6.47861 13.5919 5.18329 13.1286 4.14999 12.2807C3.11669 11.4329 2.40935 10.253 2.14848 8.94206C1.88762 7.63114 2.08938 6.27032 2.71938 5.09149C3.34938 3.91265 4.36865 2.98874 5.6035 2.47718C6.83835 1.96561 8.21238 1.89806 9.49146 2.28601C10.7705 2.67397 11.8755 3.49344 12.6181 4.60478C13.3607 5.71613 13.695 7.05058 13.564 8.38077C13.433 9.71095 12.8448 10.9546 11.8997 11.8997C11.3646 12.4378 10.728 12.8644 10.0269 13.1548C9.32585 13.4453 8.57411 13.5938 7.81523 13.5918Z" fill="url(#paint0_linear_18_159)"/>
<path d="M7.81519 8.53629C9.0821 8.53629 10.1091 7.50925 10.1091 6.24234C10.1091 4.97543 9.0821 3.9484 7.81519 3.9484C6.54827 3.9484 5.52124 4.97543 5.52124 6.24234C5.52124 7.50925 6.54827 8.53629 7.81519 8.53629Z" fill="#535353"/>
<path d="M7.81519 8.53629C9.0821 8.53629 10.1091 7.50925 10.1091 6.24234C10.1091 4.97543 9.0821 3.9484 7.81519 3.9484C6.54827 3.9484 5.52124 4.97543 5.52124 6.24234C5.52124 7.50925 6.54827 8.53629 7.81519 8.53629Z" fill="#535353"/>
<path d="M7.81519 8.53629C9.0821 8.53629 10.1091 7.50925 10.1091 6.24234C10.1091 4.97543 9.0821 3.9484 7.81519 3.9484C6.54827 3.9484 5.52124 4.97543 5.52124 6.24234C5.52124 7.50925 6.54827 8.53629 7.81519 8.53629Z" fill="url(#paint1_linear_18_159)"/>
<path d="M11.5941 10.4277C11.5597 10.106 11.4157 9.80582 11.1863 9.57762C10.956 9.34678 10.6539 9.20122 10.3299 9.16488C9.85561 9.11461 8.67753 9.08719 7.94382 9.08719C7.21011 9.08719 5.76624 9.11461 5.29163 9.16488C4.96766 9.20126 4.66567 9.34667 4.43522 9.57727C4.20593 9.80551 4.06207 10.1056 4.02776 10.4273V10.4372C4.01651 10.5462 4.00983 10.6407 4.00562 10.7216C4.1355 10.8915 4.27643 11.0526 4.42749 11.2039C5.32624 12.1025 6.54511 12.6074 7.81603 12.6074C9.08694 12.6074 10.3058 12.1025 11.2046 11.2039C11.3533 11.055 11.4922 10.8966 11.6205 10.7297C11.6152 10.6471 11.6075 10.55 11.5958 10.4375L11.5941 10.4277Z" fill="#535353"/>
<path d="M11.5941 10.4277C11.5597 10.106 11.4157 9.80582 11.1863 9.57762C10.956 9.34678 10.6539 9.20122 10.3299 9.16488C9.85561 9.11461 8.67753 9.08719 7.94382 9.08719C7.21011 9.08719 5.76624 9.11461 5.29163 9.16488C4.96766 9.20126 4.66567 9.34667 4.43522 9.57727C4.20593 9.80551 4.06207 10.1056 4.02776 10.4273V10.4372C4.01651 10.5462 4.00983 10.6407 4.00562 10.7216C4.1355 10.8915 4.27643 11.0526 4.42749 11.2039C5.32624 12.1025 6.54511 12.6074 7.81603 12.6074C9.08694 12.6074 10.3058 12.1025 11.2046 11.2039C11.3533 11.055 11.4922 10.8966 11.6205 10.7297C11.6152 10.6471 11.6075 10.55 11.5958 10.4375L11.5941 10.4277Z" fill="#535353"/>
<path d="M11.5941 10.4277C11.5597 10.106 11.4157 9.80582 11.1863 9.57762C10.956 9.34678 10.6539 9.20122 10.3299 9.16488C9.85561 9.11461 8.67753 9.08719 7.94382 9.08719C7.21011 9.08719 5.76624 9.11461 5.29163 9.16488C4.96766 9.20126 4.66567 9.34667 4.43522 9.57727C4.20593 9.80551 4.06207 10.1056 4.02776 10.4273V10.4372C4.01651 10.5462 4.00983 10.6407 4.00562 10.7216C4.1355 10.8915 4.27643 11.0526 4.42749 11.2039C5.32624 12.1025 6.54511 12.6074 7.81603 12.6074C9.08694 12.6074 10.3058 12.1025 11.2046 11.2039C11.3533 11.055 11.4922 10.8966 11.6205 10.7297C11.6152 10.6471 11.6075 10.55 11.5958 10.4375L11.5941 10.4277Z" fill="url(#paint2_linear_18_159)"/>
<defs>
<linearGradient id="paint0_linear_18_159" x1="10.4551" y1="22.8462" x2="21.3148" y2="7.27131" gradientUnits="userSpaceOnUse">
<stop stop-color="#532C85"/>
<stop offset="1" stop-color="#BE2475"/>
</linearGradient>
<linearGradient id="paint1_linear_18_159" x1="8.18606" y1="9.77149" x2="10.954" y2="5.80173" gradientUnits="userSpaceOnUse">
<stop stop-color="#532C85"/>
<stop offset="1" stop-color="#BE2475"/>
</linearGradient>
<linearGradient id="paint2_linear_18_159" x1="8.42861" y1="13.5551" x2="9.75036" y2="9.45443" gradientUnits="userSpaceOnUse">
<stop stop-color="#532C85"/>
<stop offset="1" stop-color="#BE2475"/>
</linearGradient>
</defs>
</svg>
