<svg width="20" height="19" viewBox="0 0 20 19" fill="none" xmlns="http://www.w3.org/2000/svg">
<g clip-path="url(#clip0_0_726)">
<path d="M16.8225 1.09088L1.8521 5.72935C1.57479 5.80296 1.32865 5.96414 1.15033 6.18891C0.972008 6.41368 0.871027 6.69002 0.862417 6.97681C0.853806 7.26359 0.938027 7.5455 1.10254 7.78056C1.26706 8.01562 1.50308 8.19128 1.77548 8.28139L8.5652 10.5564C8.58995 10.5658 8.61259 10.58 8.63181 10.5983C8.65103 10.6165 8.66645 10.6383 8.67719 10.6625L11.1762 17.1458C11.2773 17.4062 11.4558 17.6294 11.6876 17.7854C11.9194 17.9413 12.1935 18.0225 12.4728 18.018H12.5082C12.7923 18.0172 13.0688 17.9267 13.2984 17.7595C13.5281 17.5923 13.6991 17.3569 13.7872 17.0868L18.5494 2.78832C18.6241 2.55939 18.635 2.31445 18.581 2.07978C18.527 1.84512 18.4101 1.62958 18.2429 1.4563C18.0641 1.26855 17.8362 1.13475 17.585 1.07015C17.3339 1.00555 17.0697 1.01273 16.8225 1.09088Z" fill="#D5702C"/>
</g>
<defs>
<clipPath id="clip0_0_726">
<rect width="18.8603" height="18.8603" fill="white" transform="translate(0.27832 0.100677)"/>
</clipPath>
</defs>
</svg>
