<svg width="18" height="17" viewBox="0 0 18 17" fill="none" xmlns="http://www.w3.org/2000/svg">
<g clip-path="url(#clip0_0_720)">
<path d="M13.2013 8.24753C11.9638 8.24753 10.8565 8.79479 10.1004 9.65768L7.48167 8.04596C7.61575 7.67795 7.70052 7.28641 7.70052 6.87219C7.70052 6.60156 7.66172 6.3412 7.60254 6.0879L11.0836 4.48158C11.5877 5.09672 12.3438 5.49693 13.2015 5.49693C14.7198 5.49693 15.9519 4.26542 15.9519 2.74652C15.9519 1.22763 14.7196 -0.00387573 13.2013 -0.00387573C11.6818 -0.00387573 10.4509 1.22763 10.4509 2.74652C10.4509 2.91425 10.4718 3.07618 10.4998 3.23605L7.02284 4.84096C6.39637 3.99145 5.39778 3.43407 4.26237 3.43407C2.3633 3.43428 0.824219 4.97315 0.824219 6.87223C0.824219 8.7713 2.3633 10.3104 4.26237 10.3104C5.25069 10.3104 6.13586 9.88729 6.76297 9.21852L9.37784 10.8275C9.18432 11.3055 9.07562 11.826 9.07562 12.3732C9.07562 14.6523 10.9223 16.4989 13.2013 16.4989C15.4791 16.4989 17.327 14.6523 17.327 12.3732C17.327 10.0942 15.4791 8.24753 13.2013 8.24753Z" fill="#901D56"/>
</g>
<defs>
<clipPath id="clip0_0_720">
<rect width="16.5028" height="16.5028" fill="white" transform="translate(0.824219 -0.00382996)"/>
</clipPath>
</defs>
</svg>
