<svg width="18" height="22" viewBox="0 0 18 22" fill="none" xmlns="http://www.w3.org/2000/svg">
<path d="M2.57143 1.375C1.15313 1.375 0 2.6082 0 4.125V17.875C0 19.3918 1.15313 20.625 2.57143 20.625H15.4286C16.8469 20.625 18 19.3918 18 17.875V4.125C18 2.6082 16.8469 1.375 15.4286 1.375H2.57143ZM5.14286 9.625C5.85402 9.625 6.42857 10.2395 6.42857 11V15.125C6.42857 15.8855 5.85402 16.5 5.14286 16.5C4.4317 16.5 3.85714 15.8855 3.85714 15.125V11C3.85714 10.2395 4.4317 9.625 5.14286 9.625ZM7.71429 6.875C7.71429 6.11445 8.28884 5.5 9 5.5C9.71116 5.5 10.2857 6.11445 10.2857 6.875V15.125C10.2857 15.8855 9.71116 16.5 9 16.5C8.28884 16.5 7.71429 15.8855 7.71429 15.125V6.875ZM12.8571 12.375C13.5683 12.375 14.1429 12.9895 14.1429 13.75V15.125C14.1429 15.8855 13.5683 16.5 12.8571 16.5C12.146 16.5 11.5714 15.8855 11.5714 15.125V13.75C11.5714 12.9895 12.146 12.375 12.8571 12.375Z" fill="#901D56"/>
</svg>
