<svg width="22" height="22" viewBox="0 0 22 22" fill="none" xmlns="http://www.w3.org/2000/svg">
<path d="M7.5625 2.40625V4.125H14.4375V2.40625C14.4375 2.21719 14.2828 2.0625 14.0938 2.0625H7.90625C7.71719 2.0625 7.5625 2.21719 7.5625 2.40625ZM5.5 4.125V2.40625C5.5 1.07852 6.57852 0 7.90625 0H14.0938C15.4215 0 16.5 1.07852 16.5 2.40625V4.125V5.5V20.625H5.5V5.5V4.125ZM2.75 4.125H4.125V20.625H2.75C1.2332 20.625 0 19.3918 0 17.875V6.875C0 5.3582 1.2332 4.125 2.75 4.125ZM19.25 20.625H17.875V4.125H19.25C20.7668 4.125 22 5.3582 22 6.875V17.875C22 19.3918 20.7668 20.625 19.25 20.625Z" fill="#747474"/>
<path d="M7.5625 2.40625V4.125H14.4375V2.40625C14.4375 2.21719 14.2828 2.0625 14.0938 2.0625H7.90625C7.71719 2.0625 7.5625 2.21719 7.5625 2.40625ZM5.5 4.125V2.40625C5.5 1.07852 6.57852 0 7.90625 0H14.0938C15.4215 0 16.5 1.07852 16.5 2.40625V4.125V5.5V20.625H5.5V5.5V4.125ZM2.75 4.125H4.125V20.625H2.75C1.2332 20.625 0 19.3918 0 17.875V6.875C0 5.3582 1.2332 4.125 2.75 4.125ZM19.25 20.625H17.875V4.125H19.25C20.7668 4.125 22 5.3582 22 6.875V17.875C22 19.3918 20.7668 20.625 19.25 20.625Z" fill="url(#paint0_linear_18_50)"/>
<defs>
<linearGradient id="paint0_linear_18_50" x1="12.7784" y1="26.1779" x2="24.9252" y2="7.5956" gradientUnits="userSpaceOnUse">
<stop stop-color="#532C85"/>
<stop offset="1" stop-color="#BE2475"/>
</linearGradient>
</defs>
</svg>
