<svg width="24" height="24" viewBox="0 0 24 24" fill="none" xmlns="http://www.w3.org/2000/svg">
<circle cx="12" cy="12" r="12" fill="#D9D9D9"/>
<circle cx="12" cy="12" r="12" fill="url(#paint0_linear_220_2877)"/>
<path d="M12.0001 13.3334C12.7365 13.3334 13.3334 12.7364 13.3334 12C13.3334 11.2636 12.7365 10.6667 12.0001 10.6667C11.2637 10.6667 10.6667 11.2636 10.6667 12C10.6667 12.7364 11.2637 13.3334 12.0001 13.3334Z" fill="white"/>
<path d="M6.66659 13.3334C7.40297 13.3334 7.99992 12.7364 7.99992 12C7.99992 11.2636 7.40297 10.6667 6.66659 10.6667C5.93021 10.6667 5.33325 11.2636 5.33325 12C5.33325 12.7364 5.93021 13.3334 6.66659 13.3334Z" fill="white"/>
<path d="M17.3333 13.3334C18.0697 13.3334 18.6667 12.7364 18.6667 12C18.6667 11.2636 18.0697 10.6667 17.3333 10.6667C16.597 10.6667 16 11.2636 16 12C16 12.7364 16.597 13.3334 17.3333 13.3334Z" fill="white"/>
<defs>
<linearGradient id="paint0_linear_220_2877" x1="13.9401" y1="30.4615" x2="28.4196" y2="9.69507" gradientUnits="userSpaceOnUse">
<stop stop-color="#532C85"/>
<stop offset="1" stop-color="#BE2475"/>
</linearGradient>
</defs>
</svg>
