<svg width="24" height="24" viewBox="0 0 24 24" fill="none" xmlns="http://www.w3.org/2000/svg">
<path d="M21.6938 11.5406C21.6364 11.6771 21.5399 11.7936 21.4164 11.8753C21.293 11.9571 21.1481 12.0004 21 12H17.25V19.5C17.25 19.8978 17.092 20.2794 16.8107 20.5606C16.5294 20.8419 16.1478 21 15.75 21H8.25001C7.85221 21 7.47067 20.8419 7.18936 20.5606C6.90806 20.2794 6.75002 19.8978 6.75002 19.5V12H3.00002C2.85196 12.0004 2.70706 11.9571 2.58361 11.8753C2.46015 11.7936 2.36365 11.6771 2.30627 11.5406C2.25224 11.4021 2.23853 11.2511 2.26674 11.1051C2.29494 10.959 2.3639 10.824 2.46565 10.7156L11.4656 1.71561C11.6078 1.57477 11.7999 1.49576 12 1.49576C12.2002 1.49576 12.3922 1.57477 12.5344 1.71561L21.5344 10.7156C21.6362 10.824 21.7051 10.959 21.7333 11.1051C21.7615 11.2511 21.7478 11.4021 21.6938 11.5406Z" fill="black"/>
<path d="M21.6938 11.5406C21.6364 11.6771 21.5399 11.7936 21.4164 11.8753C21.293 11.9571 21.1481 12.0004 21 12H17.25V19.5C17.25 19.8978 17.092 20.2794 16.8107 20.5606C16.5294 20.8419 16.1478 21 15.75 21H8.25001C7.85221 21 7.47067 20.8419 7.18936 20.5606C6.90806 20.2794 6.75002 19.8978 6.75002 19.5V12H3.00002C2.85196 12.0004 2.70706 11.9571 2.58361 11.8753C2.46015 11.7936 2.36365 11.6771 2.30627 11.5406C2.25224 11.4021 2.23853 11.2511 2.26674 11.1051C2.29494 10.959 2.3639 10.824 2.46565 10.7156L11.4656 1.71561C11.6078 1.57477 11.7999 1.49576 12 1.49576C12.2002 1.49576 12.3922 1.57477 12.5344 1.71561L21.5344 10.7156C21.6362 10.824 21.7051 10.959 21.7333 11.1051C21.7615 11.2511 21.7478 11.4021 21.6938 11.5406Z" fill="url(#paint0_linear_0_673)"/>
<path d="M21.6938 11.5406C21.6364 11.6771 21.5399 11.7936 21.4164 11.8753C21.293 11.9571 21.1481 12.0004 21 12H17.25V19.5C17.25 19.8978 17.092 20.2794 16.8107 20.5606C16.5294 20.8419 16.1478 21 15.75 21H8.25001C7.85221 21 7.47067 20.8419 7.18936 20.5606C6.90806 20.2794 6.75002 19.8978 6.75002 19.5V12H3.00002C2.85196 12.0004 2.70706 11.9571 2.58361 11.8753C2.46015 11.7936 2.36365 11.6771 2.30627 11.5406C2.25224 11.4021 2.23853 11.2511 2.26674 11.1051C2.29494 10.959 2.3639 10.824 2.46565 10.7156L11.4656 1.71561C11.6078 1.57477 11.7999 1.49576 12 1.49576C12.2002 1.49576 12.3922 1.57477 12.5344 1.71561L21.5344 10.7156C21.6362 10.824 21.7051 10.959 21.7333 11.1051C21.7615 11.2511 21.7478 11.4021 21.6938 11.5406Z" fill="url(#paint1_linear_0_673)"/>
<path d="M21.6938 11.5406C21.6364 11.6771 21.5399 11.7936 21.4164 11.8753C21.293 11.9571 21.1481 12.0004 21 12H17.25V19.5C17.25 19.8978 17.092 20.2794 16.8107 20.5606C16.5294 20.8419 16.1478 21 15.75 21H8.25001C7.85221 21 7.47067 20.8419 7.18936 20.5606C6.90806 20.2794 6.75002 19.8978 6.75002 19.5V12H3.00002C2.85196 12.0004 2.70706 11.9571 2.58361 11.8753C2.46015 11.7936 2.36365 11.6771 2.30627 11.5406C2.25224 11.4021 2.23853 11.2511 2.26674 11.1051C2.29494 10.959 2.3639 10.824 2.46565 10.7156L11.4656 1.71561C11.6078 1.57477 11.7999 1.49576 12 1.49576C12.2002 1.49576 12.3922 1.57477 12.5344 1.71561L21.5344 10.7156C21.6362 10.824 21.7051 10.959 21.7333 11.1051C21.7615 11.2511 21.7478 11.4021 21.6938 11.5406Z" fill="url(#paint2_linear_0_673)"/>
<defs>
<linearGradient id="paint0_linear_0_673" x1="13.576" y1="26.2511" x2="25.345" y2="9.37983" gradientUnits="userSpaceOnUse">
<stop stop-color="#532C85"/>
<stop offset="1" stop-color="#BE2475"/>
</linearGradient>
<linearGradient id="paint1_linear_0_673" x1="12" y1="1.49576" x2="12" y2="21" gradientUnits="userSpaceOnUse">
<stop stop-color="#992B4C"/>
<stop offset="1" stop-color="#EB8A20"/>
</linearGradient>
<linearGradient id="paint2_linear_0_673" x1="12" y1="-5.81832" x2="12" y2="21" gradientUnits="userSpaceOnUse">
<stop stop-color="#992B4C"/>
<stop offset="1" stop-color="#EB8A20"/>
</linearGradient>
</defs>
</svg>
