<svg width="20" height="22" viewBox="0 0 20 22" fill="none" xmlns="http://www.w3.org/2000/svg">
<g clip-path="url(#clip0_18_13)">
<path d="M9.53333 11C10.9781 11 12.3638 10.4205 13.3854 9.38909C14.407 8.35764 14.981 6.95869 14.981 5.5C14.981 4.04131 14.407 2.64236 13.3854 1.61091C12.3638 0.579463 10.9781 0 9.53333 0C8.08854 0 6.70291 0.579463 5.68128 1.61091C4.65966 2.64236 4.08571 4.04131 4.08571 5.5C4.08571 6.95869 4.65966 8.35764 5.68128 9.38909C6.70291 10.4205 8.08854 11 9.53333 11ZM7.58836 13.0625C3.39625 13.0625 0 16.4914 0 20.7238C0 21.4285 0.566042 22 1.26402 22H17.8027C18.5006 22 19.0667 21.4285 19.0667 20.7238C19.0667 16.4914 15.6704 13.0625 11.4783 13.0625H7.58836Z" fill="#747474"/>
<path d="M9.53333 11C10.9781 11 12.3638 10.4205 13.3854 9.38909C14.407 8.35764 14.981 6.95869 14.981 5.5C14.981 4.04131 14.407 2.64236 13.3854 1.61091C12.3638 0.579463 10.9781 0 9.53333 0C8.08854 0 6.70291 0.579463 5.68128 1.61091C4.65966 2.64236 4.08571 4.04131 4.08571 5.5C4.08571 6.95869 4.65966 8.35764 5.68128 9.38909C6.70291 10.4205 8.08854 11 9.53333 11ZM7.58836 13.0625C3.39625 13.0625 0 16.4914 0 20.7238C0 21.4285 0.566042 22 1.26402 22H17.8027C18.5006 22 19.0667 21.4285 19.0667 20.7238C19.0667 16.4914 15.6704 13.0625 11.4783 13.0625H7.58836Z" fill="url(#paint0_linear_18_13)"/>
</g>
<defs>
<linearGradient id="paint0_linear_18_13" x1="11.0747" y1="27.9231" x2="24.8918" y2="10.7488" gradientUnits="userSpaceOnUse">
<stop stop-color="#532C85"/>
<stop offset="1" stop-color="#BE2475"/>
</linearGradient>
<clipPath id="clip0_18_13">
<rect width="19.0667" height="22" fill="white"/>
</clipPath>
</defs>
</svg>
