<svg width="20" height="20" viewBox="0 0 20 20" fill="none" xmlns="http://www.w3.org/2000/svg">
<path d="M17.6557 8.33916C17.3851 8.18182 17.1419 7.98141 16.9357 7.74583C16.9566 7.41784 17.0347 7.09603 17.1666 6.79499C17.4091 6.11083 17.6832 5.33583 17.2432 4.73333C16.8032 4.13083 15.9724 4.14999 15.2432 4.16666C14.921 4.19981 14.5955 4.17783 14.2807 4.10166C14.113 3.82875 13.9932 3.52915 13.9266 3.21583C13.7199 2.51166 13.4841 1.71583 12.7599 1.47749C12.0616 1.25249 11.4149 1.74749 10.8432 2.18249C10.5966 2.40776 10.3107 2.58597 9.9999 2.70833C9.68581 2.58697 9.39681 2.40871 9.1474 2.18249C8.5774 1.74999 7.93323 1.24999 7.23156 1.47833C6.50906 1.71333 6.27323 2.51166 6.0649 3.21583C5.99834 3.52813 5.87974 3.82702 5.71406 4.09999C5.39866 4.17596 5.07275 4.19849 4.7499 4.16666C4.01823 4.14666 3.19406 4.12499 2.7499 4.73333C2.30573 5.34166 2.58323 6.11083 2.82656 6.79416C2.96026 7.09475 3.03955 7.41669 3.06073 7.74499C2.85496 7.98089 2.61204 8.18159 2.34156 8.33916C1.73156 8.75583 1.03906 9.22999 1.03906 9.99999C1.03906 10.77 1.73156 11.2425 2.34156 11.6608C2.61198 11.8181 2.8549 12.0186 3.06073 12.2542C3.04178 12.5823 2.96475 12.9046 2.83323 13.2058C2.59156 13.8892 2.31823 14.6642 2.7574 15.2667C3.19656 15.8692 4.0249 15.85 4.7574 15.8333C5.07987 15.8001 5.40564 15.8221 5.72073 15.8983C5.88771 16.1715 6.00718 16.471 6.07406 16.7842C6.28073 17.4883 6.51656 18.2842 7.24073 18.5225C7.35683 18.5597 7.47797 18.5788 7.5999 18.5792C8.1859 18.4951 8.73055 18.2286 9.15656 17.8175C9.40324 17.5922 9.68906 17.414 9.9999 17.2917C10.314 17.413 10.603 17.5913 10.8524 17.8175C11.4232 18.2533 12.0699 18.7508 12.7691 18.5217C13.4916 18.2867 13.7274 17.4883 13.9357 16.785C14.0025 16.4721 14.122 16.1728 14.2891 15.9C14.6033 15.8235 14.9282 15.801 15.2499 15.8333C15.9816 15.8508 16.8057 15.875 17.2499 15.2667C17.6941 14.6583 17.4166 13.8892 17.1732 13.205C17.0404 12.9047 16.9612 12.5834 16.9391 12.2558C17.1449 12.0197 17.3882 11.819 17.6591 11.6617C18.2691 11.245 18.9616 10.77 18.9616 9.99999C18.9616 9.22999 18.2666 8.75666 17.6557 8.33916Z" fill="#49ADF4"/>
<path d="M17.6557 8.33916C17.3851 8.18182 17.1419 7.98141 16.9357 7.74583C16.9566 7.41784 17.0347 7.09603 17.1666 6.79499C17.4091 6.11083 17.6832 5.33583 17.2432 4.73333C16.8032 4.13083 15.9724 4.14999 15.2432 4.16666C14.921 4.19981 14.5955 4.17783 14.2807 4.10166C14.113 3.82875 13.9932 3.52915 13.9266 3.21583C13.7199 2.51166 13.4841 1.71583 12.7599 1.47749C12.0616 1.25249 11.4149 1.74749 10.8432 2.18249C10.5966 2.40776 10.3107 2.58597 9.9999 2.70833C9.68581 2.58697 9.39681 2.40871 9.1474 2.18249C8.5774 1.74999 7.93323 1.24999 7.23156 1.47833C6.50906 1.71333 6.27323 2.51166 6.0649 3.21583C5.99834 3.52813 5.87974 3.82702 5.71406 4.09999C5.39866 4.17596 5.07275 4.19849 4.7499 4.16666C4.01823 4.14666 3.19406 4.12499 2.7499 4.73333C2.30573 5.34166 2.58323 6.11083 2.82656 6.79416C2.96026 7.09475 3.03955 7.41669 3.06073 7.74499C2.85496 7.98089 2.61204 8.18159 2.34156 8.33916C1.73156 8.75583 1.03906 9.22999 1.03906 9.99999C1.03906 10.77 1.73156 11.2425 2.34156 11.6608C2.61198 11.8181 2.8549 12.0186 3.06073 12.2542C3.04178 12.5823 2.96475 12.9046 2.83323 13.2058C2.59156 13.8892 2.31823 14.6642 2.7574 15.2667C3.19656 15.8692 4.0249 15.85 4.7574 15.8333C5.07987 15.8001 5.40564 15.8221 5.72073 15.8983C5.88771 16.1715 6.00718 16.471 6.07406 16.7842C6.28073 17.4883 6.51656 18.2842 7.24073 18.5225C7.35683 18.5597 7.47797 18.5788 7.5999 18.5792C8.1859 18.4951 8.73055 18.2286 9.15656 17.8175C9.40324 17.5922 9.68906 17.414 9.9999 17.2917C10.314 17.413 10.603 17.5913 10.8524 17.8175C11.4232 18.2533 12.0699 18.7508 12.7691 18.5217C13.4916 18.2867 13.7274 17.4883 13.9357 16.785C14.0025 16.4721 14.122 16.1728 14.2891 15.9C14.6033 15.8235 14.9282 15.801 15.2499 15.8333C15.9816 15.8508 16.8057 15.875 17.2499 15.2667C17.6941 14.6583 17.4166 13.8892 17.1732 13.205C17.0404 12.9047 16.9612 12.5834 16.9391 12.2558C17.1449 12.0197 17.3882 11.819 17.6591 11.6617C18.2691 11.245 18.9616 10.77 18.9616 9.99999C18.9616 9.22999 18.2666 8.75666 17.6557 8.33916Z" fill="url(#paint0_linear_18_150)"/>
<path d="M9.16646 12.2917C9.08437 12.2918 9.00308 12.2757 8.92726 12.2442C8.85145 12.2128 8.78264 12.1666 8.72479 12.1083L7.05812 10.4417C6.94772 10.3232 6.88762 10.1665 6.89048 10.0046C6.89334 9.84264 6.95893 9.68815 7.07344 9.57364C7.18795 9.45913 7.34244 9.39354 7.50436 9.39068C7.66627 9.38782 7.82298 9.44793 7.94146 9.55833L9.22479 10.8417L12.1248 8.66666C12.2574 8.5672 12.4241 8.5245 12.5882 8.54794C12.7523 8.57138 12.9003 8.65905 12.9998 8.79166C13.0992 8.92427 13.142 9.09095 13.1185 9.25505C13.0951 9.41914 13.0074 9.5672 12.8748 9.66666L9.54146 12.1667C9.43324 12.2477 9.30168 12.2916 9.16646 12.2917Z" fill="white"/>
<defs>
<linearGradient id="paint0_linear_18_150" x1="11.4491" y1="23.199" x2="21.6378" y2="7.9357" gradientUnits="userSpaceOnUse">
<stop stop-color="#532C85"/>
<stop offset="1" stop-color="#BE2475"/>
</linearGradient>
</defs>
</svg>
