<svg width="18" height="18" viewBox="0 0 18 18" fill="none" xmlns="http://www.w3.org/2000/svg">
<g clip-path="url(#clip0_97_2452)">
<path d="M8.02758 7.70913H10.6095L9.97384 10.2938H7.39197L8.02758 7.70913ZM17.4129 16.5488C17.562 17.0748 17.0782 17.5613 16.5523 17.4123L13.7791 16.6248C10.3029 18.8073 5.66227 18.3938 2.63602 15.3676C-1.11866 11.6129 -0.862728 5.36351 3.40664 1.94913C6.6382 -0.638368 11.3182 -0.649613 14.5638 1.92102C18.3073 4.88538 18.9879 10.0154 16.6254 13.7785L17.4129 16.5488ZM14.7579 6.73602C14.7579 6.22695 14.3473 5.81632 13.8382 5.81632H12.9691L13.197 4.88257C13.3404 4.3032 12.9016 3.74351 12.3054 3.74351C11.8807 3.74351 11.5123 4.03321 11.411 4.44382L11.0735 5.81632H8.49165L8.71946 4.88257C8.8629 4.3032 8.42415 3.74351 7.8279 3.74351C7.40321 3.74351 7.03477 4.03321 6.93353 4.44382L6.59603 5.81632H5.16164C4.65539 5.81632 4.24196 6.22695 4.24196 6.73602V6.78945C4.24196 7.29852 4.65539 7.70913 5.16164 7.70913H6.13196L5.49914 10.2938H4.16321C3.65414 10.2938 3.24353 10.7044 3.24353 11.2135V11.2669C3.24353 11.776 3.65414 12.1866 4.16321 12.1866H5.03228L4.80447 13.1204C4.66102 13.6998 5.09977 14.2595 5.69602 14.2595C6.12071 14.2595 6.48915 13.9698 6.59039 13.5591L6.9279 12.1866H9.50977L9.27914 13.1204C9.13852 13.6998 9.57727 14.2595 10.1735 14.2595C10.3845 14.2595 10.5841 14.1863 10.7416 14.0626C10.8991 13.9388 11.0173 13.7645 11.0679 13.5591L11.4026 12.1866H12.8398C13.346 12.1866 13.7595 11.776 13.7595 11.267V11.2135C13.7595 10.7045 13.346 10.2938 12.8398 10.2938H11.8695L12.5023 7.70913H13.8382C14.3473 7.70913 14.7579 7.29852 14.7579 6.78946V6.73602Z" fill="#901D56"/>
</g>
<defs>
<clipPath id="clip0_97_2452">
<rect width="18" height="18" fill="white"/>
</clipPath>
</defs>
</svg>
