<svg width="18" height="18" viewBox="0 0 18 18" fill="none" xmlns="http://www.w3.org/2000/svg">
<g clip-path="url(#clip0_97_1987)">
<path d="M3 6.75C4.24264 6.75 5.25 5.74264 5.25 4.5C5.25 3.25736 4.24264 2.25 3 2.25C1.75736 2.25 0.75 3.25736 0.75 4.5C0.75 5.74264 1.75736 6.75 3 6.75Z" fill="#901D56"/>
<path d="M5.4675 8.3025C4.71262 8.77355 4.09004 9.42896 3.65837 10.207C3.22669 10.9851 3.00013 11.8602 3 12.75H1.5C1.10254 12.7488 0.721699 12.5904 0.440651 12.3094C0.159603 12.0283 0.00118705 11.6475 0 11.25L0 9.75C0.00178057 9.15381 0.239405 8.58255 0.660977 8.16098C1.08255 7.7394 1.65381 7.50178 2.25 7.5H3.75C4.07743 7.50074 4.40075 7.57293 4.69739 7.71154C4.99404 7.85014 5.25686 8.05182 5.4675 8.3025Z" fill="#901D56"/>
<path d="M15 6.75C16.2426 6.75 17.25 5.74264 17.25 4.5C17.25 3.25736 16.2426 2.25 15 2.25C13.7574 2.25 12.75 3.25736 12.75 4.5C12.75 5.74264 13.7574 6.75 15 6.75Z" fill="#901D56"/>
<path d="M17.9997 9.75V11.25C17.9985 11.6475 17.8401 12.0283 17.5591 12.3094C17.278 12.5904 16.8972 12.7488 16.4997 12.75H14.9997C14.9996 11.8602 14.773 10.9851 14.3414 10.207C13.9097 9.42896 13.2871 8.77355 12.5322 8.3025C12.7429 8.05182 13.0057 7.85014 13.3023 7.71154C13.599 7.57293 13.9223 7.50074 14.2497 7.5H15.7497C16.3459 7.50178 16.9172 7.7394 17.3388 8.16098C17.7603 8.58255 17.9979 9.15381 17.9997 9.75Z" fill="#901D56"/>
<path d="M9 8.25C10.6569 8.25 12 6.90685 12 5.25C12 3.59315 10.6569 2.25 9 2.25C7.34315 2.25 6 3.59315 6 5.25C6 6.90685 7.34315 8.25 9 8.25Z" fill="#901D56"/>
<path d="M13.5 12.75V13.5C13.4982 14.0962 13.2606 14.6675 12.839 15.089C12.4175 15.5106 11.8462 15.7482 11.25 15.75H6.75C6.15381 15.7482 5.58255 15.5106 5.16098 15.089C4.73941 14.6675 4.50178 14.0962 4.5 13.5V12.75C4.5 11.7554 4.89509 10.8016 5.59835 10.0983C6.30161 9.39509 7.25544 9 8.25 9H9.75C10.7446 9 11.6984 9.39509 12.4017 10.0983C13.1049 10.8016 13.5 11.7554 13.5 12.75Z" fill="#901D56"/>
</g>
<defs>
<clipPath id="clip0_97_1987">
<rect width="18" height="18" fill="white"/>
</clipPath>
</defs>
</svg>
